<svg width="26" height="27" viewBox="0 0 26 27" fill="none" xmlns="http://www.w3.org/2000/svg">
<g clip-path="url(#clip0_4_136)">
<path d="M24.5424 13.3467C24.5424 12.915 24.2876 12.5417 23.8889 12.4134C23.9443 12.425 24.0108 12.46 24.0772 12.4717C21.386 11.655 19.1156 10.3134 17.255 8.59835C15.5826 6.61502 14.2758 4.17669 13.5005 1.26002C13.5116 1.33002 13.5227 1.40002 13.5559 1.47002C13.4341 1.05002 13.0907 0.77002 12.6699 0.77002C12.249 0.77002 11.9057 1.03835 11.7839 1.45835C11.795 1.40002 11.8282 1.33002 11.8393 1.26002C11.064 4.09502 9.79037 6.48669 8.16233 8.44669C6.27957 10.2084 3.96488 11.585 1.19611 12.4017C1.26256 12.39 1.32901 12.3784 1.39546 12.3434C0.996759 12.4717 0.730957 12.8334 0.730957 13.2767C0.730957 13.72 0.985684 14.0817 1.38439 14.21C1.32901 14.1984 1.26256 14.1634 1.19611 14.1517C3.88735 14.9684 6.15774 16.31 8.01836 18.025C9.69069 20.0084 10.9976 22.4467 11.7728 25.3634C11.7617 25.2934 11.7507 25.2234 11.7174 25.1534C11.8393 25.5734 12.1826 25.8534 12.6034 25.8534C13.0243 25.8534 13.3676 25.585 13.4894 25.165C13.4784 25.2234 13.4451 25.2934 13.4341 25.3634C14.2093 22.5284 15.483 20.1367 17.111 18.1767C18.9938 16.415 21.3084 15.0384 24.0772 14.2217C24.0108 14.2334 23.9443 14.245 23.8779 14.28C24.2766 14.1517 24.5424 13.79 24.5424 13.3467Z" fill="#089C4F"/>
<path d="M24.2212 11.7133V11.7483L24.1991 11.7833L24.1769 11.8883V11.83C24.1769 11.83 24.1769 11.7716 24.1769 11.7833L24.1548 11.8766V11.83C24.1548 11.83 24.1215 12.005 24.1105 12.0166L24.1326 11.8766V11.8533V11.8883V11.8066V11.7833L24.0662 12.0983C24.0662 12.0983 24.0662 12.0283 24.0772 12.0166C24.0772 12.0166 24.0551 12.0983 24.0551 12.11C24.0551 12.11 24.0551 12.0983 24.0551 12.0866C24.0551 12.075 24.0883 11.9233 24.0883 11.9233L24.0662 11.9933L24.044 12.0633V11.9816L24.0662 11.9116L24.0329 12.0516V12.005L24.044 11.9466C24.044 11.9466 24.0219 12.04 24.0219 12.0516C24.0219 12.0516 24.0108 12.0983 24.0108 12.11L23.9997 12.1566V12.11L24.0329 11.9116V11.8533L24.0551 11.795L24.0329 11.8766C24.0329 11.8766 24.0662 11.725 24.0662 11.7133C24.0662 11.7133 24.0108 11.9233 24.0108 11.9466C24.0108 11.935 24.0329 11.8416 24.0329 11.8416L24.0108 11.9116C24.0108 11.9116 24.0108 11.9466 24.0108 11.935C24.0108 11.9116 24.0219 11.865 24.0219 11.8533C24.0219 11.8533 24.0329 11.7833 24.0329 11.7716C24.0329 11.7716 24.0329 11.7133 24.0329 11.7016V11.6666L23.7007 13.1833C23.7007 13.1833 23.7007 13.1716 23.7007 13.16C23.7007 13.16 23.7007 13.16 23.7007 13.1483C23.7007 13.1483 23.7007 13.1716 23.7007 13.16C23.7007 13.1483 23.7228 13.0666 23.7228 13.0433C23.7228 13.02 23.7339 12.9966 23.745 12.985C23.745 12.985 23.7228 13.1133 23.7228 13.125C23.7228 13.125 23.7339 13.0666 23.745 13.055C23.745 13.0666 23.745 13.09 23.745 13.0783C23.745 13.0783 23.7561 13.0316 23.7671 13.02C23.7671 13.02 23.7561 13.1016 23.7561 13.1133C23.7561 13.1016 23.7561 13.16 23.7561 13.16C23.7561 13.16 23.7782 13.055 23.7893 13.0433C23.7893 13.0433 23.7782 13.1133 23.7782 13.125L23.7893 13.0666V13.0783V13.1016V13.1366L23.8114 13.0666V13.0433V13.1133V13.1483L23.8225 13.1016V13.1716V13.1133V13.16L23.8336 13.09V13.0666V13.1016V13.16L23.8557 13.0666V13.0433L23.889 12.9266V12.95V13.0433L23.8557 13.1483V13.1833V13.2066L23.8779 13.125V13.2066C23.8779 13.2066 23.8779 13.16 23.8779 13.1483C23.8779 13.1366 23.889 13.09 23.9 13.0783C23.9 13.0783 23.889 13.1833 23.8779 13.195V13.2183L24.1769 11.7133H24.2212Z" fill="#352A71"/>
<path d="M16.7787 9.16994C16.7787 9.16994 16.8563 9.19328 16.8895 9.21661C16.9006 9.21661 17.0113 9.27494 17.0113 9.27494C17.0556 9.30994 17.1664 9.27494 17.2107 9.30994C17.255 9.34494 17.2661 9.42661 17.3104 9.46161C17.3547 9.49661 17.399 9.54328 17.4433 9.57828C17.4876 9.61328 17.5097 9.70661 17.5651 9.72994C17.6094 9.75328 17.698 9.71828 17.7423 9.74161C17.7866 9.76494 17.7977 9.85828 17.853 9.89328C17.8973 9.91661 18.0302 9.81161 18.0745 9.83494C18.1188 9.86994 18.0856 10.0216 18.1299 10.0566C18.1742 10.0916 18.2517 10.1499 18.296 10.1849C18.3403 10.2199 18.3736 10.2666 18.4179 10.3016C18.4622 10.3366 18.5286 10.3249 18.5729 10.3599C18.6172 10.3949 18.6283 10.4999 18.6726 10.5349C18.7169 10.5699 18.7723 10.6166 18.8055 10.6516C18.8498 10.6866 19.0824 10.4416 19.1267 10.4883C19.171 10.5233 19.182 10.6049 19.2263 10.6516C19.2706 10.6866 19.3592 10.6166 19.4035 10.6516C19.4589 10.6983 19.4811 10.7216 19.5364 10.7683C19.5807 10.8033 19.5364 10.9549 19.5697 10.9899C19.614 11.0249 19.6693 11.0483 19.7136 11.0833C19.7579 11.1183 19.8465 11.0833 19.8908 11.1183C19.9351 11.1533 20.0237 11.1066 20.068 11.1299C20.1123 11.1533 20.1234 11.2699 20.1677 11.2933C20.212 11.3166 20.2342 11.4216 20.2785 11.4449C20.3338 11.4683 20.4335 11.3749 20.4778 11.3983C20.5332 11.4216 20.5553 11.5033 20.5996 11.5266C20.655 11.5499 20.6772 11.6433 20.7215 11.6549C20.7768 11.6783 20.8544 11.6199 20.9097 11.6316C20.9651 11.6549 21.0094 11.6899 21.0537 11.7016C21.1091 11.7249 21.1313 11.6783 21.1866 11.7016C21.242 11.7249 21.2974 11.7016 21.3528 11.7249C21.4081 11.7483 21.3638 11.7833 21.4192 11.8066C21.4746 11.8299 21.5189 11.8533 21.5743 11.8766C21.6296 11.8999 21.6075 12.1099 21.6518 12.1216C21.7072 12.1449 21.7404 12.2266 21.7847 12.2499C21.8401 12.2733 21.8622 12.3433 21.9176 12.3666C21.9619 12.3899 22.0616 12.3199 22.1059 12.3549C22.1502 12.3783 22.128 12.5299 22.1834 12.5649C22.2277 12.5883 22.4381 12.4016 22.4935 12.4366C22.5267 12.4716 22.5489 12.5649 22.6042 12.5883C22.6596 12.6116 22.7371 12.5649 22.7925 12.5883C22.8479 12.6116 22.9365 12.5999 22.9697 12.6349C23.014 12.6699 23.0472 12.7399 23.1026 12.7633C23.158 12.7983 23.1912 12.8683 23.2355 12.8916C23.2909 12.9149 23.3573 12.9266 23.4127 12.9499C23.4681 12.9733 23.5456 13.0549 23.601 13.0783C23.6453 13.1016 23.8114 13.1716 23.8668 13.1949L24.2766 11.7016C24.2766 11.7016 24.1547 11.6783 24.1104 11.6666C24.044 11.6549 24.0108 11.6433 23.9443 11.6316C23.8779 11.6316 23.8557 11.5733 23.8114 11.5733C23.745 11.5733 23.7007 11.6316 23.6564 11.6433C23.601 11.6433 23.5456 11.6549 23.4902 11.6433C23.457 11.6433 23.4238 11.4799 23.3684 11.4449C23.3241 11.4216 23.2244 11.4799 23.1691 11.4449C23.1248 11.4099 23.0805 11.4099 23.0362 11.3866C22.9697 11.3516 22.9143 11.3049 22.8811 11.2933C22.8147 11.2699 22.7482 11.2933 22.7039 11.2933C22.6375 11.2816 22.6375 11.1416 22.5821 11.1416C22.5267 11.1416 22.5046 11.0483 22.4381 11.0366C22.3938 11.0249 22.2941 11.1183 22.2388 11.0833C22.2055 11.0599 22.1945 10.9899 22.1612 10.9666C22.128 10.9433 22.0616 10.9899 22.0173 10.9666C21.9508 10.9316 21.8954 10.8966 21.829 10.8616C21.7958 10.8383 21.7293 10.7916 21.6961 10.7683C21.6518 10.7449 21.5964 10.7449 21.541 10.7099C21.4967 10.6866 21.4746 10.6166 21.4192 10.5933C21.3749 10.5699 21.2974 10.6049 21.2531 10.5933C21.2088 10.5699 21.1423 10.5699 21.098 10.5466C21.0537 10.5233 21.0427 10.4416 20.9873 10.4183C20.943 10.3949 20.9097 10.3366 20.8654 10.3133C20.8211 10.2899 20.7547 10.3133 20.7104 10.2783C20.6661 10.2549 20.655 10.1616 20.6107 10.1383C20.5664 10.1149 20.5 10.1383 20.4557 10.1149C20.4114 10.0916 20.3892 10.0333 20.3449 9.99828C20.3006 9.97494 20.2231 9.99828 20.1788 9.97494C20.1345 9.95161 20.0902 9.92828 20.0459 9.90494C20.0016 9.86994 19.9462 9.85828 19.913 9.83494C19.8687 9.79994 19.8465 9.75328 19.8022 9.71828C19.7579 9.68328 19.7469 9.61328 19.7026 9.57828C19.6583 9.54328 19.5586 9.60161 19.5254 9.57828C19.4811 9.54328 19.4257 9.54328 19.3814 9.50828C19.3371 9.47328 19.2153 9.54328 19.171 9.50828C19.1377 9.47328 19.0824 9.42661 19.0491 9.39161L18.9162 9.29828C18.9162 9.29828 18.883 9.15828 18.8387 9.12328C18.7944 9.08828 18.8055 8.97161 18.7612 8.94828C18.7169 8.91328 18.6947 8.86661 18.6504 8.83161C18.6172 8.79661 18.5618 8.74994 18.5397 8.71494C18.4954 8.67994 18.4068 8.71494 18.3625 8.67994C18.3182 8.64494 18.3182 8.53994 18.285 8.51661C18.2407 8.48161 18.1742 8.49328 18.1299 8.46994C18.0856 8.44661 18.0192 8.45828 17.9749 8.42328C17.9306 8.39994 17.9527 8.24828 17.9084 8.21328C17.9084 8.21328 17.8752 8.16661 17.8641 8.15494C17.853 8.13161 17.8198 8.11994 17.8087 8.09661C17.7534 8.03828 17.8087 8.07328 17.7644 8.02661L16.6569 9.05328C16.6569 9.05328 16.7566 9.15828 16.7898 9.18161L16.7787 9.16994Z" fill="#352A71"/>
<path d="M12.836 1.57498C12.836 1.57498 12.8803 1.62165 12.8914 1.64498L12.9578 1.76165C12.9689 1.81998 13.0907 1.85498 13.1018 1.90165C13.1129 1.95998 13.0796 2.02998 13.1018 2.08831C13.124 2.14665 13.124 2.20498 13.1572 2.26331C13.1793 2.32165 13.1572 2.40331 13.1793 2.46165C13.2015 2.50831 13.2901 2.51998 13.3233 2.57831C13.3455 2.62498 13.3122 2.70665 13.3344 2.76498C13.3565 2.81165 13.5227 2.78831 13.5448 2.84665C13.567 2.89331 13.4562 3.00998 13.4784 3.06831C13.5005 3.12665 13.5337 3.20831 13.5559 3.26665C13.578 3.31331 13.578 3.38331 13.5891 3.42998C13.6113 3.47665 13.6666 3.52331 13.6888 3.56998C13.7109 3.62831 13.6556 3.72165 13.6888 3.76831C13.6999 3.81498 13.722 3.89665 13.7442 3.94331C13.7663 4.00165 14.0875 3.94331 14.0986 3.98998C14.1207 4.04831 14.0875 4.12998 14.0986 4.18831C14.1207 4.24665 14.2315 4.23498 14.2425 4.29331C14.2647 4.36331 14.2758 4.39831 14.2979 4.46831C14.309 4.52665 14.1982 4.61998 14.2093 4.67831C14.2204 4.73665 14.2647 4.78331 14.2868 4.84165C14.309 4.89998 14.3976 4.92331 14.4197 4.96998C14.4419 5.01665 14.5305 5.03998 14.5637 5.08665C14.5859 5.13331 14.5416 5.22665 14.5637 5.28498C14.5859 5.33165 14.5526 5.42498 14.5859 5.47165C14.6191 5.51831 14.752 5.49498 14.7852 5.55331C14.8184 5.59998 14.7852 5.68164 14.8295 5.72831C14.8627 5.77498 14.8295 5.86831 14.8627 5.91498C14.896 5.96165 14.9956 5.96165 15.0289 6.00831C15.0621 6.06665 15.0842 6.10165 15.1175 6.15998C15.1507 6.20665 15.195 6.19498 15.2282 6.22998C15.2614 6.27665 15.3168 6.29998 15.35 6.34665C15.3833 6.39331 15.3279 6.40498 15.3611 6.45165C15.3943 6.50998 15.4165 6.54498 15.4497 6.60331C15.4829 6.64998 15.35 6.81331 15.3833 6.85998C15.4165 6.90665 15.3943 6.99998 15.4276 7.04665C15.4608 7.09331 15.4497 7.17498 15.4719 7.22165C15.5051 7.26831 15.6158 7.26831 15.638 7.32665C15.6601 7.37331 15.5715 7.48998 15.5937 7.54831C15.6158 7.59498 15.8927 7.55998 15.9149 7.61831C15.9259 7.66498 15.8927 7.75831 15.9259 7.81665C15.9592 7.86331 16.0478 7.87498 16.081 7.92165C16.1142 7.97998 16.1917 8.01498 16.2028 8.06165C16.225 8.11998 16.2028 8.18998 16.2471 8.24831C16.2803 8.30665 16.2582 8.38831 16.2914 8.43498C16.3357 8.49331 16.3579 8.52831 16.4022 8.57498C16.4354 8.63331 16.4575 8.73831 16.4908 8.79665C16.524 8.84331 16.6126 8.99498 16.6569 9.04165L17.7644 8.01498C17.7644 8.01498 17.6758 7.93331 17.6426 7.89831C17.5983 7.85165 17.5651 7.81665 17.5208 7.76998C17.4765 7.73498 17.4765 7.67665 17.4432 7.64165C17.3879 7.60665 17.3214 7.64165 17.2771 7.60665C17.2328 7.58331 17.1774 7.55998 17.1331 7.52498C17.0999 7.50165 17.1664 7.34998 17.1331 7.27998C17.111 7.23331 16.9892 7.23331 16.967 7.17498C16.9448 7.11665 16.9005 7.09331 16.8784 7.04665C16.8452 6.97665 16.823 6.90665 16.8009 6.88331C16.7676 6.82498 16.6901 6.81331 16.6569 6.77831C16.6126 6.73165 16.679 6.61498 16.6347 6.57998C16.5904 6.54498 16.6126 6.46331 16.5794 6.40498C16.5461 6.36998 16.4132 6.39331 16.3911 6.32331C16.38 6.28831 16.4022 6.21831 16.3911 6.18331C16.38 6.14831 16.2914 6.13665 16.2803 6.10165C16.2471 6.03165 16.2139 5.97331 16.1696 5.90331C16.1474 5.85665 16.1253 5.78665 16.1031 5.75165C16.081 5.70498 16.0367 5.66998 16.0035 5.62331C15.9813 5.57665 16.0035 5.50665 15.9702 5.45998C15.9481 5.41331 15.8595 5.40165 15.8373 5.35498C15.8152 5.30831 15.7598 5.27331 15.7377 5.22665C15.7044 5.17998 15.7377 5.09831 15.7155 5.05165C15.6823 5.00498 15.6934 4.93498 15.6712 4.88831C15.6491 4.84165 15.5826 4.81831 15.5605 4.77165C15.5383 4.72498 15.5715 4.64331 15.5494 4.59665C15.5272 4.54998 15.4497 4.52665 15.4276 4.47998C15.4054 4.43331 15.4165 4.36331 15.3943 4.31665C15.3722 4.26998 15.2836 4.24665 15.2614 4.19998C15.2393 4.15331 15.2061 4.10665 15.1839 4.05998C15.1618 4.01331 15.1285 3.96665 15.1064 3.91998C15.0842 3.87331 15.0953 3.81498 15.0732 3.75665C15.051 3.70998 15.0732 3.63998 15.0732 3.59331C15.051 3.54665 14.9513 3.53498 14.9292 3.47665C14.907 3.41831 14.8627 3.39498 14.8517 3.33665C14.8295 3.27831 14.6966 3.27831 14.6745 3.21998C14.6523 3.16165 14.6523 3.10331 14.6412 3.05665L14.5748 2.90498C14.5748 2.90498 14.6191 2.76498 14.5969 2.71831C14.5748 2.65998 14.6523 2.57831 14.6302 2.51998C14.6191 2.46165 14.6302 2.41498 14.608 2.35665C14.608 2.30998 14.5859 2.23998 14.5748 2.19331C14.5637 2.14665 14.453 2.11165 14.4419 2.06498C14.4308 2.00665 14.4751 1.92498 14.464 1.87831C14.4419 1.83165 14.3865 1.79665 14.3644 1.74998C14.3422 1.70331 14.2758 1.66831 14.2536 1.62165C14.2315 1.57498 14.3311 1.45831 14.309 1.41165C14.309 1.41165 14.309 1.35331 14.309 1.32998C14.309 1.30665 14.2868 1.28331 14.2868 1.24831C14.2868 1.22498 14.2647 1.09665 14.2536 1.06165L12.836 1.48165C12.836 1.48165 12.8692 1.57498 12.8803 1.59831L12.836 1.57498Z" fill="#352A71"/>
<path d="M14.2315 1.19001H14.1983L14.1651 1.21335L14.0765 1.24835L14.1208 1.22501C14.1208 1.22501 14.1429 1.21335 14.154 1.21335C14.154 1.21335 14.0765 1.24835 14.0654 1.24835C14.0654 1.24835 14.0986 1.23668 14.1097 1.22501L13.9436 1.28335L14.0654 1.23668L14.0875 1.22501H14.0543L14.1318 1.20168H14.1429C14.1429 1.20168 13.855 1.29501 13.8439 1.29501C13.8439 1.29501 13.8993 1.27168 13.9103 1.27168L13.8328 1.29501C13.8328 1.29501 13.8328 1.29501 13.855 1.29501C13.866 1.29501 13.9989 1.24835 14.01 1.23668H13.9436L13.8771 1.27168L13.9546 1.24835L14.0211 1.22501L13.8882 1.26001H13.9325L13.9879 1.22501C13.9879 1.22501 13.8993 1.24835 13.8882 1.24835L13.8328 1.26001L14.01 1.19001L14.0654 1.16668H14.1208C14.1208 1.16668 14.0432 1.16668 14.0322 1.16668C14.0322 1.16668 14.1761 1.13168 14.1872 1.12001C14.1872 1.12001 13.9768 1.16668 13.9657 1.16668C13.9768 1.16668 14.0654 1.14335 14.0654 1.14335H13.9989C13.9989 1.14335 13.9657 1.16668 13.9768 1.15501C13.9989 1.15501 14.0432 1.14335 14.0543 1.13168C14.0543 1.13168 14.1208 1.10835 14.1318 1.10835C14.1318 1.10835 14.1872 1.09668 14.1983 1.09668H14.2315L12.7917 1.40001C12.7917 1.40001 12.8028 1.40001 12.8139 1.40001C12.8139 1.40001 12.8139 1.40001 12.825 1.40001C12.8028 1.40001 12.836 1.40001 12.825 1.40001C12.8471 1.40001 12.9136 1.38835 12.9357 1.37668C12.9579 1.37668 12.98 1.37668 13.0022 1.37668C13.0022 1.37668 12.8803 1.41168 12.8693 1.41168C12.8693 1.41168 12.9468 1.40001 12.9357 1.41168C12.9246 1.41168 12.9025 1.42335 12.9136 1.42335H12.9689C12.9689 1.42335 12.8693 1.45835 12.8803 1.45835C12.8914 1.45835 12.836 1.47001 12.836 1.48168C12.836 1.48168 12.9579 1.45835 12.9468 1.45835C12.9468 1.45835 12.8803 1.48168 12.8693 1.48168H12.9246V1.49335L12.9025 1.50501H12.9246L12.8803 1.52835H12.9468L12.98 1.51668L12.9246 1.54001H12.8914H12.9357L12.8693 1.56335H12.9246H12.8914H12.9579H12.9689L12.9357 1.58668L12.8803 1.61001L12.9689 1.58668H12.9911L13.1018 1.55168H13.0797V1.57501L12.9911 1.61001L12.9025 1.65668H12.8803L12.8693 1.69168L12.9468 1.66835L12.8803 1.70335C12.8803 1.70335 12.9246 1.69168 12.9357 1.69168C12.9357 1.69168 12.9911 1.68001 13.0022 1.66835C13.0022 1.66835 12.9136 1.71501 12.9025 1.71501H12.8914V1.72668H12.8803L14.2537 1.16668H14.2426L14.2315 1.19001Z" fill="#352A71"/>
<path d="M12.4816 1.66833L12.4484 1.645L12.4263 1.62167L12.3377 1.56334C12.3377 1.56334 12.393 1.575 12.393 1.56334C12.393 1.56334 12.4041 1.56334 12.4041 1.55167C12.4041 1.55167 12.4595 1.575 12.4484 1.55167C12.4484 1.55167 12.382 1.49333 12.382 1.48167C12.382 1.48167 12.4373 1.505 12.4263 1.49333C12.4263 1.49333 12.3044 1.365 12.3044 1.35333C12.3044 1.34167 12.4152 1.44667 12.4152 1.435L12.4263 1.42333H12.4484C12.4484 1.42333 12.4373 1.37667 12.4484 1.37667L12.5038 1.435C12.5038 1.435 12.5149 1.435 12.5259 1.435C12.5259 1.435 12.4041 1.13167 12.4152 1.13167C12.4263 1.13167 12.4595 1.19 12.4706 1.19C12.4816 1.19 12.4484 1.085 12.4706 1.09667C12.4816 1.09667 12.4927 1.09667 12.5149 1.10833C12.5259 1.10833 12.5702 1.26 12.5702 1.27167C12.5702 1.27167 12.5813 1.27167 12.5924 1.27167C12.5924 1.27167 12.5924 1.20167 12.6035 1.20167C12.6035 1.20167 12.6035 1.12 12.6256 1.12C12.6256 1.12 12.6478 1.21333 12.6588 1.20167C12.6588 1.20167 12.6699 1.28333 12.681 1.27167C12.681 1.27167 12.7031 1.13167 12.7142 1.13167C12.7142 1.13167 12.7253 1.19 12.7364 1.17833C12.7364 1.17833 12.7364 1.24834 12.7474 1.24834C12.7474 1.24834 12.7807 1.155 12.7917 1.155C12.7917 1.155 12.8028 1.155 12.8139 1.155C12.8139 1.155 12.836 1.10833 12.8471 1.10833C12.8471 1.10833 12.8803 1.07333 12.8914 1.07333C12.9025 1.07333 12.8803 1.12 12.8914 1.12L12.9136 1.13167C12.9246 1.13167 12.8471 1.31833 12.8471 1.31833L12.836 1.38833L12.8139 1.44667C12.8139 1.44667 12.8803 1.37667 12.8803 1.38833L12.7917 1.51667C12.7917 1.51667 12.9689 1.35333 12.9689 1.365C12.9689 1.37667 12.9025 1.44667 12.9025 1.44667C12.9025 1.44667 12.9689 1.41167 12.9689 1.42333C12.9689 1.42333 13.0132 1.42333 13.0022 1.42333C12.9911 1.435 12.9579 1.48167 12.9468 1.48167C12.9468 1.48167 12.8914 1.52833 12.8914 1.54C12.8914 1.54 12.9025 1.54 12.9025 1.55167C12.9025 1.55167 12.8582 1.58667 12.8582 1.59834L12.836 1.63333L14.2426 1.16667C14.2426 1.16667 14.2093 1.10833 14.1983 1.085C14.1761 1.06167 14.165 1.02667 14.154 1.00333C14.1318 0.980002 14.154 0.945002 14.1318 0.921668C14.0986 0.898335 14.0321 0.921668 13.9989 0.910002C13.9768 0.910002 13.9325 0.886668 13.9103 0.875002C13.8992 0.875002 13.9878 0.758335 13.9768 0.711668C13.9768 0.676668 13.866 0.711668 13.866 0.676668C13.866 0.641668 13.8328 0.641668 13.8217 0.606668C13.8106 0.571668 13.7996 0.525002 13.7774 0.513335C13.7553 0.478335 13.6999 0.513335 13.6777 0.490002C13.6445 0.478335 13.6999 0.361668 13.6777 0.361668C13.6445 0.361668 13.6667 0.280002 13.6334 0.256668C13.6113 0.245002 13.5116 0.326668 13.4895 0.303335C13.4784 0.280002 13.4895 0.221668 13.4784 0.198335C13.4673 0.175002 13.4119 0.221668 13.3898 0.198335C13.3566 0.175002 13.3233 0.151668 13.2901 0.140002C13.268 0.116668 13.2458 0.093335 13.2237 0.0816683C13.2015 0.0700016 13.1683 0.0816683 13.1351 0.0700016C13.1129 0.0583349 13.0908 1.62423e-06 13.0686 -0.011665C13.0354 -0.011665 13.0022 0.0466683 12.9689 0.0350016C12.9468 0.0350016 12.9136 0.0466683 12.8803 0.0466683C12.8582 0.0466683 12.836 -0.0233317 12.8028 -0.0233317C12.7807 -0.0233317 12.7474 -0.0699984 12.7253 -0.0583317C12.6921 -0.0583317 12.6699 -0.011665 12.6478 -0.011665C12.6256 -0.011665 12.5924 -0.081665 12.5592 -0.081665C12.5259 -0.081665 12.5038 -0.0233317 12.4816 -0.011665C12.4595 -0.011665 12.4263 -0.046665 12.393 -0.046665C12.3598 -0.046665 12.3487 0.0350016 12.3266 0.0466683C12.3044 0.0466683 12.2712 0.0700016 12.2491 0.0700016C12.2269 0.0700016 12.2048 0.105002 12.1715 0.105002C12.1494 0.105002 12.1162 0.105002 12.0829 0.105002C12.0608 0.105002 12.0165 0.0700016 11.9833 0.0816683C11.9611 0.0816683 11.9722 0.198335 11.95 0.210002C11.9279 0.210002 11.9168 0.256668 11.8947 0.268335C11.8725 0.280002 11.8947 0.408335 11.8947 0.420002C11.8725 0.431668 11.8393 0.420002 11.8171 0.443335C11.795 0.455002 11.7839 0.478335 11.7618 0.501668C11.7396 0.513335 11.6621 0.466668 11.6399 0.478335C11.6178 0.490002 11.5292 0.443335 11.507 0.466668C11.4849 0.490002 11.4517 0.490002 11.4295 0.513335C11.4074 0.536668 11.3741 0.548335 11.3631 0.571668C11.3409 0.595002 11.3963 0.676668 11.3741 0.700002C11.3631 0.723335 11.2745 0.700002 11.2634 0.735002C11.2523 0.758335 11.2745 0.805002 11.2634 0.840002C11.2634 0.875002 11.2855 0.921668 11.2855 0.945002C11.2855 0.968335 11.1526 0.945002 11.1526 0.991668C11.1526 0.991668 11.1305 1.015 11.1194 1.02667C11.1083 1.02667 11.1194 1.06167 11.1083 1.07333C11.1083 1.085 11.064 1.155 11.064 1.16667L12.4706 1.62167L12.4816 1.66833Z" fill="#352A71"/>
<path d="M11.1194 1.10828H11.1526L11.1859 1.13161L11.2855 1.15494H11.2302C11.2302 1.15494 11.1748 1.15494 11.1859 1.15494C11.1859 1.15494 11.2745 1.17828 11.2855 1.17828H11.2412C11.2412 1.17828 11.4074 1.21328 11.4184 1.22494L11.2855 1.20161H11.2634H11.2966H11.2191H11.1969L11.496 1.27161C11.496 1.27161 11.4295 1.27161 11.4184 1.25994C11.4184 1.25994 11.496 1.28328 11.507 1.28328C11.507 1.28328 11.496 1.28328 11.4849 1.28328C11.4738 1.28328 11.3298 1.24828 11.3298 1.24828L11.3963 1.27161L11.4627 1.29494H11.3852L11.3188 1.27161L11.4517 1.30661H11.4074L11.352 1.29494C11.352 1.29494 11.4406 1.31828 11.4517 1.31828C11.4517 1.31828 11.496 1.32994 11.507 1.32994L11.5513 1.34161H11.507L11.3188 1.30661H11.2634L11.208 1.28328L11.2855 1.30661C11.2855 1.30661 11.1416 1.27161 11.1305 1.27161C11.1305 1.27161 11.3298 1.32994 11.352 1.32994C11.3409 1.32994 11.2523 1.30661 11.2523 1.30661L11.3188 1.32994C11.3188 1.32994 11.352 1.32994 11.3409 1.32994C11.3188 1.32994 11.2745 1.31828 11.2634 1.31828C11.2634 1.31828 11.1969 1.30661 11.1859 1.30661C11.1859 1.30661 11.1305 1.30661 11.1194 1.30661H11.0862L12.5259 1.64494C12.5259 1.64494 12.5149 1.64494 12.5038 1.64494C12.5038 1.64494 12.5038 1.64494 12.4927 1.64494C12.4927 1.64494 12.5149 1.64494 12.5038 1.64494C12.4927 1.64494 12.4152 1.62161 12.393 1.62161C12.3709 1.62161 12.3487 1.60994 12.3377 1.59828C12.3377 1.59828 12.4595 1.62161 12.4706 1.62161C12.4706 1.62161 12.4152 1.60994 12.4041 1.59828C12.4152 1.59828 12.4373 1.59828 12.4263 1.59828C12.4263 1.59828 12.382 1.58661 12.3709 1.57494C12.3709 1.57494 12.4484 1.58661 12.4595 1.58661C12.4484 1.58661 12.5038 1.58661 12.5038 1.58661C12.5038 1.58661 12.4041 1.56328 12.393 1.55161C12.393 1.55161 12.4595 1.56328 12.4706 1.56328L12.4152 1.55161H12.4263H12.4484H12.4373H12.4927L12.4263 1.52828H12.4041H12.4706H12.5038L12.4595 1.51661H12.5259H12.4706H12.5149L12.4484 1.50494L12.4373 1.49328H12.4706H12.5259L12.4373 1.46994H12.4152L12.3044 1.43494H12.3266H12.4152L12.5149 1.46994H12.5481H12.5702L12.4927 1.44661H12.5702C12.5702 1.44661 12.5259 1.44661 12.5149 1.44661C12.5149 1.44661 12.4595 1.43494 12.4484 1.42328C12.4484 1.42328 12.5481 1.43494 12.5592 1.43494H12.5702H12.5813L11.1305 1.11994H11.1416L11.1194 1.10828Z" fill="#352A71"/>
<path d="M8.70505 8.93666C8.70505 8.93666 8.7272 8.855 8.74935 8.82C8.74935 8.80833 8.80472 8.69166 8.80472 8.69166C8.83795 8.645 8.80472 8.52833 8.83795 8.48166C8.87117 8.435 8.9487 8.42333 8.98192 8.37666C9.01515 8.33 9.05945 8.28333 9.09267 8.23666C9.1259 8.19 9.2145 8.16666 9.23665 8.10833C9.2588 8.06166 9.22558 7.96833 9.24773 7.92166C9.26988 7.875 9.35848 7.86333 9.3917 7.805C9.41385 7.75833 9.31418 7.61833 9.33633 7.57166C9.36955 7.525 9.51353 7.56 9.54675 7.51333C9.57998 7.46666 9.63535 7.385 9.66858 7.33833C9.7018 7.29166 9.7461 7.25666 9.77933 7.21C9.81255 7.16333 9.80148 7.09333 9.8347 7.04666C9.86793 7 9.96761 6.98833 10.0008 6.94166C10.0341 6.895 10.0784 6.83666 10.1116 6.80166C10.1448 6.755 9.91223 6.51 9.95653 6.46333C9.98976 6.41666 10.0673 6.405 10.1116 6.35833C10.1448 6.31166 10.0784 6.21833 10.1116 6.17166C10.1559 6.11333 10.178 6.09 10.2223 6.03166C10.2556 5.985 10.3995 6.03166 10.4328 5.99666C10.466 5.95 10.4881 5.89166 10.5214 5.845C10.5546 5.79833 10.5214 5.705 10.5546 5.65833C10.5878 5.61166 10.5435 5.51833 10.5657 5.47166C10.5878 5.425 10.6986 5.41333 10.7207 5.36666C10.7429 5.32 10.8425 5.29666 10.8647 5.25C10.8868 5.19166 10.7982 5.08666 10.8204 5.04C10.8425 4.98166 10.9201 4.95833 10.9422 4.91166C10.9644 4.85333 11.053 4.83 11.064 4.78333C11.0862 4.725 11.0308 4.64333 11.0419 4.585C11.064 4.52666 11.0973 4.48 11.1083 4.43333C11.1305 4.375 11.0862 4.35166 11.1083 4.29333C11.1305 4.235 11.1083 4.17666 11.1305 4.11833C11.1526 4.06 11.1859 4.10666 11.208 4.04833C11.2302 3.99 11.2523 3.94333 11.2745 3.885C11.2966 3.82666 11.496 3.85 11.507 3.80333C11.5292 3.745 11.6067 3.71 11.6289 3.66333C11.651 3.605 11.7175 3.58166 11.7396 3.52333C11.7618 3.47666 11.6953 3.37166 11.7285 3.325C11.7507 3.27833 11.8947 3.30166 11.9279 3.24333C11.95 3.19666 11.7728 2.975 11.8061 2.91666C11.8393 2.88166 11.9279 2.85833 11.95 2.8C11.9722 2.74166 11.9279 2.66 11.95 2.60166C11.9722 2.54333 11.9611 2.45 11.9943 2.415C12.0276 2.36833 12.094 2.33333 12.1162 2.275C12.1494 2.21666 12.2158 2.18166 12.238 2.135C12.2601 2.07666 12.2712 2.00666 12.2934 1.94833C12.3155 1.89 12.393 1.80833 12.4152 1.75C12.4373 1.70333 12.5038 1.52833 12.5259 1.47L11.1083 1.03833C11.1083 1.03833 11.0862 1.16666 11.0751 1.21333C11.064 1.28333 11.053 1.31833 11.0419 1.38833C11.0419 1.45833 10.9865 1.48166 10.9865 1.52833C10.9865 1.59833 11.0419 1.645 11.053 1.69166C11.053 1.75 11.064 1.80833 11.053 1.86666C11.053 1.90166 10.8979 1.93666 10.8647 1.995C10.8425 2.04166 10.8979 2.14666 10.8647 2.205C10.8315 2.25166 10.8315 2.29833 10.8093 2.345C10.7761 2.415 10.7318 2.47333 10.7207 2.50833C10.6986 2.57833 10.7207 2.64833 10.7207 2.695C10.7096 2.765 10.5767 2.765 10.5767 2.82333C10.5767 2.88166 10.4881 2.905 10.4771 2.975C10.466 3.02166 10.5546 3.12666 10.5214 3.185C10.4992 3.22 10.4328 3.23166 10.4106 3.26666C10.3885 3.30166 10.4328 3.37166 10.4106 3.41833C10.3774 3.48833 10.3442 3.54666 10.3109 3.61666C10.2888 3.65166 10.2445 3.72166 10.2223 3.75666C10.2002 3.80333 10.2002 3.86166 10.167 3.92C10.1448 3.96666 10.0784 3.99 10.0562 4.04833C10.0341 4.095 10.0673 4.17666 10.0562 4.22333C10.0341 4.27 10.0341 4.34 10.0119 4.38666C9.98976 4.43333 9.91223 4.445 9.89008 4.50333C9.86793 4.55 9.81255 4.585 9.7904 4.63166C9.76825 4.67833 9.7904 4.74833 9.75718 4.795C9.73503 4.84166 9.64643 4.85333 9.62428 4.9C9.60213 4.94666 9.62428 5.01666 9.60213 5.06333C9.57998 5.11 9.5246 5.13333 9.49138 5.18C9.46923 5.22666 9.49138 5.30833 9.46923 5.355C9.44708 5.40166 9.42493 5.44833 9.40278 5.495C9.36955 5.54166 9.35848 5.6 9.33633 5.635C9.3031 5.68166 9.2588 5.705 9.22558 5.75166C9.19235 5.79833 9.1259 5.81 9.09267 5.85666C9.05945 5.90333 9.11482 6.00833 9.09267 6.04333C9.05945 6.09 9.05945 6.14833 9.02622 6.195C8.993 6.24166 9.05945 6.37 9.02622 6.41666C8.993 6.45166 8.9487 6.51 8.91547 6.545L8.82687 6.685C8.82687 6.685 8.69397 6.72 8.66075 6.76666C8.62752 6.81333 8.51677 6.80166 8.49462 6.84833C8.4614 6.895 8.4171 6.91833 8.38387 6.965C8.35064 7 8.30634 7.05833 8.27312 7.08166C8.23989 7.12833 8.27312 7.22166 8.23989 7.26833C8.20667 7.315 8.10699 7.315 8.08484 7.35C8.05162 7.39666 8.06269 7.46666 8.04054 7.51333C8.01839 7.56 8.02947 7.63 7.99624 7.67666C7.97409 7.72333 7.83012 7.7 7.79689 7.74666C7.79689 7.74666 7.75259 7.78166 7.74152 7.79333C7.71937 7.805 7.70829 7.84 7.68614 7.85166C7.63076 7.91 7.66399 7.85166 7.61969 7.89833L8.5943 9.065C8.5943 9.065 8.69397 8.97166 8.71612 8.925L8.70505 8.93666Z" fill="#352A71"/>
<path d="M1.49512 13.1016C1.49512 13.1016 1.53942 13.055 1.56157 13.0433L1.67232 12.9733C1.72769 12.9616 1.76092 12.8333 1.80522 12.8216C1.86059 12.81 1.92704 12.845 1.98242 12.8216C2.03779 12.7983 2.09317 12.7983 2.14854 12.775C2.20392 12.7516 2.28145 12.775 2.33682 12.7516C2.38112 12.7283 2.3922 12.635 2.44757 12.6C2.49187 12.5766 2.5694 12.6116 2.62477 12.5883C2.66907 12.565 2.64692 12.39 2.7023 12.3666C2.7466 12.3433 2.85735 12.46 2.91272 12.4366C2.9681 12.4133 3.04563 12.3783 3.101 12.355C3.1453 12.3316 3.21175 12.3316 3.25605 12.32C3.30035 12.2966 3.34465 12.2383 3.38895 12.215C3.44433 12.1916 3.53293 12.25 3.57723 12.215C3.62153 12.2033 3.69906 12.18 3.74336 12.1566C3.79873 12.1333 3.74336 11.795 3.78766 11.7833C3.84303 11.76 3.92056 11.795 3.97593 11.7833C4.03131 11.76 4.02023 11.6433 4.07561 11.6316C4.14206 11.6083 4.17528 11.5966 4.24173 11.5733C4.29711 11.5616 4.38571 11.6783 4.44109 11.6666C4.49646 11.655 4.54076 11.6083 4.59614 11.585C4.65151 11.5616 4.67366 11.4683 4.71796 11.445C4.76226 11.4216 4.78441 11.3283 4.82871 11.2933C4.87301 11.27 4.96161 11.3166 5.01699 11.2933C5.06129 11.27 5.14989 11.305 5.19419 11.27C5.23849 11.2466 5.21634 11.095 5.27172 11.06C5.31602 11.025 5.39354 11.06 5.43784 11.0133C5.48214 10.9783 5.57074 11.0133 5.61504 10.9783C5.65934 10.9433 5.65934 10.8383 5.70364 10.8033C5.75902 10.7683 5.79224 10.745 5.84762 10.71C5.89192 10.675 5.88084 10.6283 5.91407 10.5933C5.95837 10.5583 5.98052 10.5 6.02482 10.465C6.06912 10.43 6.0802 10.4883 6.1245 10.4533C6.17987 10.4183 6.2131 10.395 6.26847 10.36C6.31277 10.325 6.46782 10.465 6.51212 10.43C6.55642 10.395 6.64502 10.4183 6.68932 10.3833C6.73362 10.3483 6.81115 10.36 6.85545 10.3366C6.89975 10.3016 6.89975 10.185 6.95513 10.1616C6.99943 10.1383 7.11018 10.2316 7.16555 10.2083C7.20985 10.185 7.17663 9.8933 7.232 9.86996C7.2763 9.8583 7.3649 9.8933 7.42028 9.8583C7.46458 9.8233 7.47566 9.72996 7.51996 9.69496C7.57533 9.65996 7.60856 9.5783 7.65286 9.56663C7.70823 9.5433 7.77468 9.56663 7.83006 9.51996C7.88543 9.48496 7.96296 9.5083 8.00726 9.4733C8.06263 9.42663 8.09586 9.4033 8.14016 9.35663C8.19553 9.32163 8.29521 9.2983 8.35059 9.2633C8.39489 9.2283 8.53886 9.13496 8.58316 9.0883L7.60856 7.92163C7.60856 7.92163 7.53103 8.01496 7.49781 8.04996C7.4535 8.09663 7.42028 8.13163 7.37598 8.1783C7.34275 8.22496 7.28738 8.22496 7.25415 8.25996C7.22093 8.3183 7.25415 8.3883 7.22093 8.43496C7.19878 8.48163 7.17663 8.53996 7.1434 8.58663C7.12125 8.62163 6.97728 8.55163 6.91083 8.58663C6.86653 8.60996 6.86653 8.7383 6.81115 8.76163C6.75578 8.78496 6.73362 8.83163 6.68932 8.85496C6.62287 8.88996 6.55642 8.9133 6.53427 8.93663C6.4789 8.97163 6.46782 9.0533 6.4346 9.0883C6.3903 9.13496 6.27955 9.06496 6.24632 9.11163C6.2131 9.1583 6.13557 9.13496 6.0802 9.16996C6.04697 9.20496 6.06912 9.34496 6.00267 9.3683C5.96945 9.37996 5.90299 9.35663 5.86977 9.3683C5.83654 9.37996 5.82547 9.4733 5.79224 9.48496C5.72579 9.51996 5.67042 9.55496 5.60397 9.60163C5.55967 9.62496 5.49322 9.6483 5.45999 9.67163C5.41569 9.69496 5.38247 9.74163 5.33817 9.77663C5.29387 9.79996 5.22741 9.77663 5.18311 9.81163C5.13881 9.83496 5.12774 9.9283 5.08344 9.95163C5.03914 9.97496 5.00591 10.0333 4.96161 10.0566C4.91731 10.0916 4.83979 10.0566 4.79549 10.08C4.75119 10.115 4.68474 10.1033 4.64044 10.1266C4.59614 10.15 4.57399 10.22 4.52969 10.2433C4.48539 10.2666 4.40786 10.2316 4.36356 10.255C4.31926 10.2783 4.29711 10.36 4.25281 10.3833C4.20851 10.4066 4.14206 10.3833 4.09776 10.4183C4.05346 10.4416 4.03131 10.535 3.98701 10.5583C3.94271 10.5816 3.89841 10.6166 3.85411 10.64C3.80981 10.6633 3.76551 10.6983 3.7212 10.7216C3.6769 10.745 3.62153 10.7333 3.56615 10.7566C3.52185 10.78 3.4554 10.7566 3.4111 10.7566C3.3668 10.78 3.35573 10.885 3.30035 10.9083C3.24498 10.9316 3.22283 10.9783 3.16745 10.99C3.11208 11.0133 3.11208 11.1533 3.0567 11.1766C3.00133 11.2 2.94595 11.2 2.90165 11.2116L2.75767 11.2816C2.75767 11.2816 2.62477 11.235 2.58047 11.2583C2.5251 11.2816 2.44757 11.2 2.3922 11.2233C2.33682 11.235 2.29252 11.2233 2.23715 11.2466C2.19285 11.2466 2.12639 11.27 2.08209 11.2816C2.03779 11.2933 2.00457 11.41 1.96027 11.4216C1.90489 11.4333 1.82737 11.3866 1.78307 11.3983C1.73877 11.4216 1.70554 11.48 1.66124 11.5033C1.61694 11.5266 1.58372 11.5966 1.53942 11.62C1.49512 11.6433 1.38436 11.5383 1.34006 11.5616C1.34006 11.5616 1.28469 11.5616 1.26254 11.5616C1.24039 11.5616 1.21824 11.585 1.18501 11.585C1.16286 11.585 1.04104 11.6083 1.00781 11.62L1.40652 13.1133C1.40652 13.1133 1.49512 13.0783 1.51727 13.0666L1.49512 13.1016Z" fill="#352A71"/>
<path d="M1.12968 11.6316V11.6666L1.15183 11.7016L1.18506 11.795L1.16291 11.7483C1.16291 11.7483 1.15183 11.725 1.15183 11.7133C1.15183 11.7133 1.18506 11.795 1.18506 11.8066C1.18506 11.8066 1.17398 11.7716 1.16291 11.76C1.16291 11.76 1.21828 11.9233 1.21828 11.935L1.17398 11.8066V11.7833V11.8183L1.15183 11.7366C1.15183 11.7366 1.24043 12.0283 1.25151 12.0283C1.25151 12.0283 1.22936 11.97 1.22936 11.9583L1.25151 12.04C1.25151 12.04 1.25151 12.04 1.25151 12.0166C1.25151 12.0166 1.20721 11.865 1.19613 11.8533V11.9233L1.22936 11.9933L1.20721 11.9116L1.18506 11.8416L1.21828 11.9816V11.935L1.18506 11.8766C1.18506 11.8766 1.20721 11.97 1.20721 11.9816L1.21828 12.04H1.20721L1.15183 11.8533L1.12968 11.795V11.7366C1.12968 11.7366 1.12968 11.8183 1.12968 11.83C1.12968 11.83 1.09646 11.6783 1.08538 11.6666C1.08538 11.6666 1.12968 11.8883 1.12968 11.9C1.12968 11.8883 1.10753 11.795 1.10753 11.795V11.865C1.10753 11.865 1.12968 11.9 1.11861 11.8883C1.11861 11.865 1.10753 11.8183 1.09646 11.8066C1.09646 11.8066 1.07431 11.7366 1.07431 11.725C1.07431 11.725 1.06323 11.6666 1.06323 11.655V11.62L1.36226 13.1366C1.36226 13.1366 1.36226 13.125 1.36226 13.1133C1.36226 13.1133 1.36226 13.1133 1.36226 13.1016C1.36226 13.09 1.36226 13.125 1.36226 13.1016C1.36226 13.0783 1.35118 13.0083 1.34011 12.985C1.34011 12.9616 1.34011 12.9383 1.34011 12.915C1.34011 12.915 1.37333 13.0433 1.37333 13.055C1.37333 13.055 1.36226 12.9733 1.37333 12.985C1.37333 12.9966 1.38441 13.02 1.38441 13.0083V12.95C1.38441 12.95 1.41763 13.055 1.41763 13.0433C1.41763 13.0316 1.42871 13.09 1.43978 13.09C1.43978 13.09 1.41763 12.9616 1.41763 12.9733C1.41763 12.9733 1.43978 13.0433 1.43978 13.055V12.9966H1.45086L1.46194 13.02V12.9966L1.48409 13.0433V12.9733L1.47301 12.9383L1.49516 12.9966V13.0316V12.985L1.51731 13.055V12.9966V13.0316V12.9616L1.52839 12.9733L1.55054 13.0316L1.52839 12.9383V12.915L1.49516 12.7983V12.8216H1.51731L1.55054 12.915L1.59484 13.0083V13.0316L1.62806 13.0433L1.60591 12.9616L1.63914 13.0316C1.63914 13.0316 1.62806 12.985 1.62806 12.9733C1.62806 12.9733 1.61699 12.915 1.60591 12.9033C1.60591 12.9033 1.65021 12.9966 1.65021 13.0083V13.02H1.66129L1.11861 11.585L1.12968 11.6316Z" fill="#352A71"/>
<path d="M1.58375 13.475L1.5616 13.51L1.53945 13.5333L1.48407 13.6267C1.48407 13.6267 1.49515 13.5683 1.48407 13.5683C1.48407 13.5683 1.48407 13.5567 1.473 13.5567C1.473 13.5567 1.49515 13.4983 1.473 13.51C1.473 13.51 1.41762 13.58 1.40655 13.58C1.40655 13.58 1.4287 13.5217 1.41762 13.5333C1.41762 13.5333 1.29579 13.6617 1.28472 13.6617C1.27364 13.6617 1.37332 13.545 1.36224 13.545L1.35117 13.5333V13.51C1.35117 13.51 1.30687 13.5217 1.30687 13.51L1.36224 13.4517C1.36224 13.4517 1.36224 13.44 1.36224 13.4283C1.36224 13.4283 1.07429 13.5567 1.07429 13.545C1.07429 13.5333 1.12967 13.4983 1.12967 13.4867C1.12967 13.475 1.02999 13.51 1.04107 13.4867C1.04107 13.475 1.04107 13.4633 1.05214 13.44C1.05214 13.4283 1.19612 13.3817 1.20719 13.3817C1.20719 13.3817 1.20719 13.37 1.20719 13.3583C1.20719 13.3583 1.14074 13.3583 1.14074 13.3467C1.14074 13.3467 1.06322 13.3467 1.06322 13.3233C1.06322 13.3233 1.15182 13.3 1.14074 13.2883C1.14074 13.2883 1.21827 13.2767 1.20719 13.265C1.20719 13.265 1.07429 13.2417 1.07429 13.23C1.07429 13.23 1.12967 13.2183 1.11859 13.2067C1.11859 13.2067 1.18504 13.2067 1.18504 13.195C1.18504 13.195 1.09644 13.16 1.09644 13.1483C1.09644 13.1483 1.09644 13.1367 1.09644 13.125C1.09644 13.125 1.05214 13.1017 1.05214 13.09C1.05214 13.09 1.01892 13.055 1.01892 13.0433C1.01892 13.0317 1.06322 13.055 1.06322 13.0433L1.07429 13.02C1.07429 13.0083 1.25149 13.09 1.25149 13.09L1.31794 13.1017L1.37332 13.125C1.37332 13.125 1.30687 13.055 1.31794 13.055L1.43977 13.1483C1.43977 13.1483 1.28472 12.9617 1.29579 12.9617C1.30687 12.9617 1.37332 13.0317 1.37332 13.0317C1.37332 13.0317 1.34009 12.9617 1.35117 12.9617C1.35117 12.9617 1.35117 12.915 1.35117 12.9267C1.36224 12.9383 1.40655 12.9733 1.40655 12.985C1.40655 12.985 1.45085 13.0433 1.46192 13.0433C1.46192 13.0433 1.46192 13.0317 1.473 13.0317C1.473 13.0317 1.50622 13.0783 1.5173 13.0783L1.55052 13.1017L1.10752 11.62C1.10752 11.62 1.05214 11.655 1.02999 11.6667C1.00784 11.69 0.974617 11.7017 0.952467 11.7133C0.930317 11.7367 0.897092 11.7133 0.874942 11.7367C0.852791 11.7717 0.874942 11.8417 0.863866 11.8767C0.863866 11.9 0.841716 11.9467 0.830641 11.97C0.830641 11.9817 0.719891 11.8883 0.67559 11.9C0.642365 11.9 0.67559 12.0167 0.642365 12.0167C0.60914 12.0167 0.60914 12.0517 0.575915 12.0633C0.542689 12.075 0.498389 12.0867 0.487314 12.11C0.454089 12.1333 0.487314 12.1917 0.465164 12.215C0.454089 12.25 0.343338 12.1917 0.343338 12.215C0.343338 12.25 0.265813 12.2267 0.243662 12.2617C0.232587 12.285 0.310113 12.39 0.287963 12.4133C0.265813 12.425 0.210437 12.4133 0.188287 12.425C0.166137 12.4367 0.210437 12.495 0.188287 12.5183C0.166137 12.5533 0.143987 12.5883 0.132912 12.6233C0.110762 12.6467 0.0886114 12.67 0.0775364 12.6933C0.0664613 12.7167 0.0775364 12.7517 0.0664613 12.7867C0.0553862 12.81 1.08629e-05 12.8333 -0.0110642 12.8567C-0.0110642 12.8917 0.0443112 12.9267 0.0332361 12.9617C0.0332361 12.985 0.0443111 13.02 0.0443111 13.055C0.0443111 13.0783 -0.0221393 13.1017 -0.0221393 13.1367C-0.0221393 13.16 -0.0664396 13.195 -0.0553645 13.2183C-0.0553645 13.2533 -0.0110642 13.2767 -0.0110642 13.3C-0.0110642 13.3233 -0.0775146 13.3583 -0.0775146 13.3933C-0.0775146 13.4283 -0.0221393 13.4517 -0.0110642 13.475C-0.0110642 13.4983 -0.0442894 13.5333 -0.0442894 13.5683C-0.0442894 13.6033 0.0332361 13.615 0.0443111 13.6383C0.0443111 13.6617 0.0664613 13.6967 0.0664613 13.72C0.0664613 13.7433 0.0996865 13.7667 0.0996865 13.8017C0.0996865 13.825 0.0996865 13.86 0.0996865 13.895C0.0996865 13.9183 0.0664613 13.965 0.0775364 14C0.0775364 14.0233 0.188287 14.0117 0.199362 14.035C0.199362 14.0583 0.243662 14.07 0.254738 14.0933C0.265813 14.1167 0.387638 14.0933 0.398713 14.0933C0.409789 14.1167 0.398713 14.1517 0.420864 14.175C0.431939 14.1983 0.454089 14.21 0.476239 14.2333C0.487314 14.2567 0.443014 14.3383 0.454089 14.3617C0.465164 14.385 0.420864 14.4783 0.443014 14.5017C0.465164 14.525 0.465164 14.56 0.487314 14.5833C0.509464 14.6067 0.520539 14.6417 0.542689 14.6533C0.56484 14.6767 0.642365 14.6183 0.664515 14.6417C0.686665 14.6533 0.664515 14.7467 0.69774 14.7583C0.719891 14.77 0.764191 14.7467 0.797416 14.7583C0.830641 14.7583 0.874942 14.735 0.897092 14.735C0.919242 14.735 0.897092 14.875 0.941392 14.875C0.941392 14.875 0.963542 14.8983 0.974617 14.91C0.974617 14.9217 1.00784 14.91 1.01892 14.9217C1.02999 14.9217 1.09644 14.9683 1.10752 14.9683L1.53945 13.4867H1.52837L1.58375 13.475Z" fill="#352A71"/>
<path d="M1.05212 14.8983V14.8633L1.07427 14.8283L1.09642 14.7233V14.7816C1.09642 14.7816 1.09642 14.84 1.09642 14.8283L1.11857 14.735V14.7816C1.11857 14.7816 1.1518 14.6066 1.16287 14.595L1.14072 14.735V14.7583V14.7233V14.805V14.8283L1.20718 14.5133C1.20718 14.5133 1.20718 14.5833 1.1961 14.595C1.1961 14.595 1.21825 14.5133 1.21825 14.5016C1.21825 14.5016 1.21825 14.5133 1.21825 14.525C1.21825 14.5366 1.18502 14.6883 1.18502 14.6883L1.20718 14.6183L1.22933 14.5483V14.63L1.20718 14.7L1.2404 14.56V14.6066L1.22933 14.665C1.22933 14.665 1.25148 14.5716 1.25148 14.56C1.25148 14.56 1.26255 14.5133 1.26255 14.5016L1.27363 14.455V14.5016L1.2404 14.7V14.7583L1.21825 14.8166L1.2404 14.735C1.2404 14.735 1.20718 14.8866 1.20718 14.8983C1.20718 14.8983 1.26255 14.6883 1.26255 14.665C1.26255 14.6766 1.2404 14.77 1.2404 14.77L1.26255 14.7C1.26255 14.7 1.26255 14.665 1.26255 14.6766C1.26255 14.7 1.25148 14.7466 1.25148 14.7583C1.25148 14.7583 1.2404 14.8283 1.2404 14.84C1.2404 14.84 1.2404 14.8983 1.2404 14.91V14.945L1.56158 13.4283C1.56158 13.4283 1.56158 13.44 1.56158 13.4516C1.56158 13.4516 1.56158 13.4516 1.56158 13.4633C1.56158 13.4633 1.56158 13.44 1.56158 13.4516C1.56158 13.4633 1.53943 13.545 1.53943 13.5683C1.53943 13.5916 1.52835 13.615 1.51728 13.6266C1.51728 13.6266 1.53943 13.4983 1.53943 13.4866C1.53943 13.4866 1.52835 13.545 1.51728 13.5566C1.51728 13.545 1.51728 13.5216 1.51728 13.5333C1.51728 13.5333 1.5062 13.58 1.49513 13.5916C1.49513 13.5916 1.5062 13.51 1.5062 13.4983C1.5062 13.51 1.5062 13.4516 1.5062 13.4516C1.5062 13.4516 1.48405 13.5566 1.47298 13.5683C1.47298 13.5683 1.48405 13.4983 1.48405 13.4866L1.47298 13.545V13.5333V13.51V13.475L1.45083 13.545V13.5683V13.4983V13.4633L1.43975 13.51V13.44V13.4983V13.4516L1.42868 13.5216V13.545V13.51V13.4516L1.40653 13.545V13.5683L1.3733 13.685V13.6616V13.5683L1.40653 13.4633V13.4283V13.405L1.38438 13.4866V13.405C1.38438 13.405 1.38438 13.4516 1.38438 13.4633C1.38438 13.4633 1.3733 13.5216 1.36223 13.5333C1.36223 13.5333 1.3733 13.4283 1.3733 13.4166V13.3933L1.08535 14.8983H1.05212Z" fill="#352A71"/>
<path d="M8.48354 17.4533C8.48354 17.4533 8.39494 17.43 8.37279 17.4067C8.36172 17.4067 8.25097 17.3483 8.25097 17.3483C8.20667 17.3133 8.09591 17.3483 8.05161 17.3133C8.00731 17.2783 7.99624 17.1967 7.95194 17.1617C7.90764 17.1267 7.86334 17.08 7.81904 17.045C7.77474 17.01 7.75259 16.9167 7.69721 16.8933C7.65291 16.87 7.56431 16.905 7.52001 16.8817C7.47571 16.8583 7.46464 16.765 7.40926 16.73C7.36496 16.7067 7.23206 16.8117 7.18776 16.7883C7.14346 16.7533 7.17668 16.6017 7.13238 16.5667C7.08808 16.5317 7.01056 16.4733 6.96626 16.4383C6.92196 16.4033 6.88873 16.3567 6.84443 16.3217C6.80013 16.2867 6.73368 16.2983 6.68938 16.2633C6.64508 16.2283 6.63401 16.1233 6.5897 16.0883C6.5454 16.0533 6.49003 16.0067 6.4568 15.9717C6.4125 15.9367 6.17993 16.1817 6.13563 16.135C6.09133 16.1 6.08025 16.0183 6.03595 15.9717C5.99165 15.9367 5.90305 16.0067 5.85875 15.9717C5.80337 15.925 5.78122 15.9017 5.72585 15.855C5.68155 15.82 5.72585 15.6683 5.69262 15.6333C5.64832 15.5983 5.59295 15.575 5.54865 15.54C5.50435 15.505 5.41575 15.54 5.37145 15.505C5.32715 15.47 5.23855 15.5167 5.19425 15.4933C5.14995 15.47 5.13887 15.3533 5.09457 15.33C5.05027 15.3067 5.02812 15.2017 4.98382 15.1783C4.92844 15.155 4.82877 15.2483 4.78447 15.225C4.72909 15.2017 4.70694 15.12 4.66264 15.0967C4.60727 15.0733 4.58512 14.98 4.54082 14.9683C4.48544 14.945 4.40792 15.0033 4.35254 14.9917C4.29716 14.9683 4.25286 14.9333 4.20856 14.9217C4.15319 14.8983 4.13104 14.945 4.07566 14.9217C4.02029 14.8983 3.96491 14.9217 3.90954 14.8983C3.85416 14.875 3.89846 14.84 3.84309 14.8167C3.78771 14.7933 3.74341 14.77 3.68804 14.7467C3.63266 14.7233 3.65481 14.5133 3.61051 14.5017C3.55513 14.4783 3.52191 14.3967 3.47761 14.3733C3.42223 14.35 3.40008 14.28 3.34471 14.2567C3.30041 14.2333 3.20073 14.3033 3.15643 14.2683C3.11213 14.245 3.13428 14.0933 3.07891 14.0583C3.03461 14.035 2.82418 14.2217 2.7688 14.1867C2.73558 14.1517 2.71343 14.0583 2.65805 14.035C2.60268 14.0117 2.52515 14.0583 2.46978 14.035C2.4144 14.0117 2.3258 14.0233 2.29258 13.9883C2.24828 13.9533 2.21505 13.8833 2.15968 13.86C2.1043 13.825 2.07108 13.755 2.02677 13.7317C1.9714 13.7083 1.90495 13.6967 1.84957 13.6733C1.7942 13.65 1.71667 13.5683 1.6613 13.545C1.617 13.5217 1.45087 13.4517 1.3955 13.4283L0.985718 14.9217C0.985718 14.9217 1.10754 14.945 1.15184 14.9567C1.21829 14.9683 1.25152 14.98 1.31797 14.9917C1.38442 14.9917 1.40657 15.05 1.45087 15.05C1.51732 15.05 1.56162 14.9917 1.60592 14.98C1.6613 14.98 1.71667 14.9683 1.77205 14.98C1.80527 14.98 1.8385 15.1433 1.89387 15.1783C1.93817 15.2017 2.03785 15.1433 2.09323 15.1783C2.13753 15.2133 2.18183 15.2133 2.22613 15.2367C2.29258 15.2717 2.34795 15.3183 2.38118 15.33C2.44763 15.3533 2.51408 15.33 2.55838 15.33C2.62483 15.3417 2.62483 15.4817 2.6802 15.4817C2.73558 15.4817 2.75773 15.575 2.82418 15.5867C2.86848 15.5983 2.96816 15.505 3.02353 15.54C3.05676 15.5633 3.06783 15.6333 3.10106 15.6567C3.13428 15.68 3.20073 15.6333 3.24503 15.6567C3.31148 15.6917 3.36686 15.7267 3.43331 15.7617C3.46653 15.785 3.53298 15.8317 3.56621 15.855C3.61051 15.8783 3.66589 15.8783 3.72126 15.9133C3.76556 15.9367 3.78771 16.0067 3.84309 16.03C3.88739 16.0533 3.96491 16.0183 4.00921 16.03C4.05351 16.0533 4.11996 16.0533 4.16426 16.0767C4.20856 16.1 4.21964 16.1817 4.27501 16.205C4.31931 16.2283 4.35254 16.2867 4.39684 16.31C4.44114 16.3333 4.50759 16.31 4.55189 16.345C4.59619 16.3683 4.60727 16.4617 4.65157 16.485C4.69587 16.5083 4.76232 16.485 4.80662 16.5083C4.85092 16.5317 4.87307 16.59 4.91737 16.625C4.96167 16.6483 5.0392 16.625 5.0835 16.6483C5.1278 16.6717 5.1721 16.695 5.2164 16.7183C5.2607 16.7533 5.31607 16.765 5.3493 16.7883C5.3936 16.8233 5.41575 16.87 5.46005 16.905C5.50435 16.94 5.51542 17.01 5.55972 17.045C5.60402 17.08 5.7037 17.0217 5.73692 17.045C5.78122 17.08 5.8366 17.08 5.8809 17.115C5.9252 17.15 6.04703 17.08 6.09133 17.115C6.12455 17.15 6.17993 17.1967 6.21315 17.2317L6.34605 17.325C6.34605 17.325 6.37928 17.465 6.42358 17.5C6.46788 17.535 6.4568 17.6517 6.5011 17.675C6.5454 17.71 6.56755 17.7567 6.61186 17.7917C6.64508 17.8267 6.70046 17.8733 6.72261 17.9083C6.76691 17.9433 6.85551 17.9083 6.89981 17.9433C6.94411 17.9783 6.94411 18.0833 6.97733 18.1067C7.02163 18.1417 7.08808 18.13 7.13238 18.1533C7.17668 18.1767 7.24313 18.165 7.28743 18.2C7.33174 18.2233 7.30958 18.375 7.35389 18.41C7.35389 18.41 7.38711 18.4567 7.39819 18.4683C7.40926 18.4917 7.44249 18.5033 7.45356 18.5267C7.50894 18.585 7.45356 18.55 7.49786 18.5967L8.60537 17.57C8.60537 17.57 8.51677 17.465 8.47247 17.4417L8.48354 17.4533Z" fill="#352A71"/>
<path d="M12.4373 25.0483C12.4373 25.0483 12.393 25.0017 12.3819 24.9783L12.3155 24.8617C12.3044 24.8033 12.1826 24.7683 12.1715 24.7217C12.1604 24.6633 12.1936 24.5933 12.1715 24.535C12.1493 24.4767 12.1493 24.4183 12.1272 24.36C12.105 24.3017 12.1272 24.22 12.105 24.1617C12.0829 24.115 11.9943 24.1033 11.9611 24.045C11.9389 23.9983 11.9721 23.9167 11.95 23.8583C11.9278 23.8117 11.7617 23.835 11.7396 23.7767C11.7174 23.73 11.8282 23.6133 11.806 23.555C11.7839 23.4967 11.7506 23.415 11.7285 23.3567C11.7063 23.31 11.7063 23.24 11.6953 23.1933C11.6731 23.1467 11.6177 23.1 11.5956 23.0533C11.5734 22.995 11.6288 22.9017 11.5956 22.855C11.5845 22.8083 11.5624 22.7267 11.5402 22.68C11.5181 22.6217 11.1969 22.68 11.1858 22.6333C11.1637 22.575 11.1969 22.4933 11.1858 22.435C11.1637 22.3767 11.0529 22.3883 11.0418 22.33C11.0197 22.26 11.0086 22.225 10.9865 22.155C10.9754 22.0967 11.0861 22.0033 11.0751 21.945C11.064 21.8867 11.0197 21.84 10.9975 21.7817C10.9754 21.7233 10.8868 21.7 10.8646 21.6533C10.8425 21.6067 10.7539 21.5833 10.7207 21.5367C10.6985 21.49 10.7428 21.3967 10.7207 21.3383C10.6985 21.2917 10.7317 21.1983 10.6985 21.1517C10.6653 21.105 10.5324 21.1283 10.4992 21.07C10.4659 21.0233 10.4992 20.9417 10.4549 20.895C10.4216 20.8483 10.4549 20.755 10.4216 20.7083C10.3884 20.6617 10.2887 20.6617 10.2555 20.615C10.2223 20.5567 10.2001 20.5217 10.1669 20.4633C10.1337 20.4167 10.0894 20.4283 10.0561 20.3933C10.0229 20.3467 9.96755 20.3233 9.93432 20.2767C9.9011 20.23 9.95647 20.2183 9.92325 20.1717C9.89002 20.1133 9.86787 20.0783 9.83465 20.02C9.80142 19.9733 9.93432 19.81 9.9011 19.7633C9.86787 19.7167 9.89002 19.6233 9.8568 19.5767C9.82357 19.53 9.83465 19.4483 9.8125 19.4017C9.77927 19.355 9.66852 19.355 9.64637 19.2967C9.62422 19.25 9.71282 19.1333 9.69067 19.075C9.66852 19.0283 9.39165 19.0633 9.3695 19.005C9.35842 18.9583 9.39165 18.865 9.35842 18.8067C9.3252 18.76 9.2366 18.7483 9.20337 18.7017C9.17014 18.6433 9.09262 18.6083 9.08154 18.5617C9.05939 18.5033 9.08154 18.4333 9.03724 18.375C9.00402 18.3167 9.02617 18.235 8.99294 18.1883C8.94864 18.13 8.92649 18.095 8.88219 18.0483C8.84897 17.99 8.82682 17.885 8.79359 17.8267C8.76037 17.78 8.67177 17.6283 8.62747 17.5817L7.51996 18.6083C7.51996 18.6083 7.60856 18.69 7.64178 18.725C7.68608 18.7717 7.71931 18.8067 7.76361 18.8533C7.80791 18.8883 7.80791 18.9467 7.84114 18.9817C7.89651 19.0167 7.96296 18.9817 8.00726 19.0167C8.05156 19.04 8.10694 19.0633 8.15124 19.0983C8.18446 19.1217 8.11801 19.2733 8.15124 19.3433C8.17339 19.39 8.29521 19.39 8.31736 19.4483C8.33951 19.5067 8.38381 19.53 8.40596 19.5767C8.43919 19.6467 8.46134 19.7167 8.48349 19.74C8.51671 19.7983 8.59424 19.81 8.62747 19.845C8.67177 19.8917 8.60532 20.0083 8.64962 20.0433C8.69392 20.0783 8.67177 20.16 8.70499 20.2183C8.73822 20.2533 8.87112 20.23 8.89327 20.3C8.90434 20.335 8.88219 20.405 8.89327 20.44C8.90434 20.475 8.99294 20.4867 9.00402 20.5217C9.03724 20.5917 9.07047 20.65 9.11477 20.72C9.13692 20.7667 9.15907 20.8367 9.18122 20.8717C9.20337 20.9183 9.24767 20.9533 9.2809 21C9.30305 21.0467 9.28089 21.1167 9.31412 21.1633C9.33627 21.21 9.42487 21.2217 9.44702 21.2683C9.46917 21.315 9.52455 21.35 9.5467 21.3967C9.57992 21.4433 9.5467 21.525 9.56885 21.5717C9.60207 21.6183 9.591 21.6883 9.61315 21.735C9.6353 21.7817 9.70175 21.805 9.7239 21.8517C9.74605 21.8983 9.71282 21.98 9.73497 22.0267C9.75712 22.0733 9.83465 22.0967 9.8568 22.1433C9.87895 22.19 9.86787 22.26 9.89002 22.3067C9.91217 22.3533 10.0008 22.3767 10.0229 22.4233C10.0451 22.47 10.0783 22.5167 10.1005 22.5633C10.1226 22.61 10.1558 22.6567 10.178 22.7033C10.2001 22.75 10.1891 22.8083 10.2112 22.8667C10.2334 22.9133 10.2112 22.9833 10.2112 23.03C10.2334 23.0767 10.333 23.0883 10.3552 23.1467C10.3773 23.205 10.4216 23.2283 10.4327 23.2867C10.4549 23.345 10.5878 23.345 10.6099 23.4033C10.6321 23.4617 10.6321 23.52 10.6431 23.5667L10.7096 23.7183C10.7096 23.7183 10.6653 23.8583 10.6874 23.905C10.7096 23.9633 10.6321 24.045 10.6542 24.1033C10.6653 24.1617 10.6542 24.2083 10.6764 24.2667C10.6764 24.3133 10.6985 24.3833 10.7096 24.43C10.7207 24.4767 10.8314 24.5117 10.8425 24.5583C10.8536 24.6167 10.8093 24.6983 10.8203 24.745C10.8425 24.7917 10.8979 24.8267 10.92 24.8733C10.9422 24.92 11.0086 24.955 11.0308 25.0017C11.0529 25.0483 10.9532 25.165 10.9754 25.2117C10.9754 25.2117 10.9754 25.27 10.9754 25.2933C10.9754 25.3167 10.9975 25.34 10.9975 25.375C10.9975 25.3983 11.0197 25.5267 11.0308 25.5617L12.4484 25.1417C12.4484 25.1417 12.4151 25.0483 12.4041 25.025L12.4373 25.0483Z" fill="#352A71"/>
<path d="M11.0419 25.4333H11.0751L11.1083 25.41L11.1969 25.375L11.1526 25.3983C11.1526 25.3983 11.1305 25.41 11.1194 25.41C11.1194 25.41 11.1969 25.375 11.208 25.375C11.208 25.375 11.1748 25.3867 11.1637 25.3983L11.3298 25.34L11.208 25.3867L11.1858 25.3983H11.2191L11.1415 25.4217H11.1305C11.1305 25.4217 11.4184 25.3283 11.4295 25.3283C11.4295 25.3283 11.3741 25.3517 11.363 25.3517L11.4406 25.3283C11.4406 25.3283 11.4406 25.3283 11.4184 25.3283C11.4073 25.3283 11.2744 25.375 11.2634 25.3867H11.3298L11.3963 25.3517L11.3187 25.375L11.2523 25.3983L11.3852 25.3633H11.3409L11.2855 25.3983C11.2855 25.3983 11.3741 25.375 11.3852 25.375L11.4406 25.3633V25.375L11.2634 25.4217L11.208 25.445H11.1526C11.1526 25.445 11.2301 25.445 11.2412 25.445C11.2412 25.445 11.0972 25.48 11.0862 25.4917C11.0862 25.4917 11.2966 25.445 11.3077 25.445C11.2966 25.445 11.208 25.4683 11.208 25.4683H11.2744C11.2744 25.4683 11.3077 25.445 11.2966 25.4567C11.2744 25.4567 11.2301 25.4683 11.2191 25.48C11.2191 25.48 11.1526 25.5033 11.1415 25.5033C11.1415 25.5033 11.0862 25.515 11.0751 25.515H11.0419L12.4816 25.2117C12.4816 25.2117 12.4705 25.2117 12.4595 25.2117C12.4595 25.2117 12.4595 25.2117 12.4484 25.2117C12.4373 25.2117 12.4705 25.2117 12.4484 25.2117C12.4262 25.2117 12.3598 25.2233 12.3376 25.235C12.3155 25.235 12.2933 25.235 12.2712 25.235C12.2712 25.235 12.393 25.2 12.4041 25.2C12.4041 25.2 12.3266 25.2117 12.3376 25.2C12.3487 25.2 12.3709 25.1883 12.3598 25.1883H12.3044C12.3044 25.1883 12.4041 25.1533 12.393 25.1533C12.3819 25.1533 12.4373 25.1417 12.4373 25.13C12.4373 25.13 12.3155 25.1533 12.3266 25.1533C12.3266 25.1533 12.393 25.13 12.4041 25.13H12.3487V25.1183L12.3709 25.1067H12.3487L12.393 25.0833H12.3266L12.2933 25.095L12.3487 25.0717H12.3819H12.3376L12.4041 25.0483H12.3487H12.3819H12.3155H12.3044L12.3376 25.025L12.393 25.0017L12.3044 25.025H12.2823L12.1715 25.06H12.1937V25.0367L12.2823 25.0017L12.3709 24.955H12.393L12.4041 24.92L12.3266 24.9433L12.393 24.9083C12.393 24.9083 12.3487 24.92 12.3376 24.92C12.3376 24.92 12.2823 24.9317 12.2712 24.9433C12.2712 24.9433 12.3598 24.8967 12.3709 24.8967H12.3819V24.885H12.393L11.0197 25.445H11.0308L11.0419 25.4333Z" fill="#352A71"/>
<path d="M12.7917 24.9434L12.8249 24.9667L12.8471 24.99L12.9357 25.0484C12.9357 25.0484 12.8803 25.0367 12.8803 25.0484C12.8803 25.0484 12.8692 25.0484 12.8692 25.06C12.8692 25.06 12.8138 25.0367 12.8249 25.06C12.8249 25.06 12.8914 25.1184 12.8914 25.13C12.8914 25.13 12.836 25.1067 12.8471 25.1184C12.8471 25.1184 12.9689 25.2467 12.9689 25.2584C12.9689 25.27 12.8581 25.165 12.8581 25.1767L12.8471 25.1884H12.8249C12.8249 25.1884 12.836 25.235 12.8249 25.235L12.7695 25.1767C12.7695 25.1767 12.7585 25.1767 12.7474 25.1767C12.7474 25.1767 12.8692 25.48 12.8581 25.48C12.8471 25.48 12.8138 25.4217 12.8028 25.4217C12.7917 25.4217 12.8249 25.5267 12.8028 25.515C12.7917 25.515 12.7806 25.515 12.7585 25.5034C12.7474 25.5034 12.7031 25.3517 12.7031 25.34C12.7031 25.34 12.692 25.34 12.6809 25.34C12.6809 25.34 12.6809 25.41 12.6699 25.41C12.6699 25.41 12.6699 25.4917 12.6477 25.4917C12.6477 25.4917 12.6256 25.3984 12.6145 25.41C12.6145 25.41 12.6034 25.3284 12.5923 25.34C12.5923 25.34 12.5702 25.48 12.5591 25.48C12.5591 25.48 12.548 25.4217 12.537 25.4334C12.537 25.4334 12.537 25.3634 12.5259 25.3634C12.5259 25.3634 12.4927 25.4567 12.4816 25.4567C12.4816 25.4567 12.4705 25.4567 12.4594 25.4567C12.4594 25.4567 12.4373 25.5034 12.4262 25.5034C12.4262 25.5034 12.393 25.5384 12.3819 25.5384C12.3708 25.5384 12.393 25.4917 12.3819 25.4917L12.3598 25.48C12.3487 25.48 12.4262 25.2934 12.4262 25.2934L12.4373 25.2234L12.4594 25.165C12.4594 25.165 12.393 25.235 12.393 25.2234L12.4816 25.095C12.4816 25.095 12.3044 25.2584 12.3044 25.2467C12.3044 25.235 12.3708 25.165 12.3708 25.165C12.3708 25.165 12.3044 25.2 12.3044 25.1884C12.3044 25.1884 12.2601 25.1884 12.2712 25.1884C12.2822 25.1767 12.3155 25.13 12.3265 25.13C12.3265 25.13 12.3819 25.0834 12.3819 25.0717C12.3819 25.0717 12.3708 25.0717 12.3708 25.06C12.3708 25.06 12.4151 25.025 12.4151 25.0134L12.4373 24.9784L11.0308 25.445C11.0308 25.445 11.064 25.5034 11.0751 25.5267C11.0972 25.55 11.1083 25.585 11.1194 25.6084C11.1415 25.6317 11.1194 25.6667 11.1415 25.69C11.1747 25.7134 11.2412 25.69 11.2744 25.7017C11.2966 25.7017 11.3409 25.725 11.363 25.7367C11.3741 25.7367 11.2855 25.8534 11.2966 25.9C11.2966 25.935 11.4073 25.9 11.4073 25.935C11.4073 25.97 11.4405 25.97 11.4516 26.005C11.4627 26.04 11.4738 26.0867 11.4959 26.0984C11.5181 26.1334 11.5734 26.0984 11.5956 26.1217C11.6288 26.1334 11.5734 26.25 11.5956 26.25C11.6288 26.25 11.6067 26.3317 11.6399 26.355C11.662 26.3667 11.7617 26.285 11.7839 26.3084C11.7949 26.3317 11.7839 26.39 11.7949 26.4134C11.806 26.4367 11.8614 26.39 11.8835 26.4134C11.9168 26.4367 11.95 26.46 11.9832 26.4717C12.0054 26.495 12.0275 26.5184 12.0497 26.53C12.0718 26.5417 12.105 26.53 12.1383 26.5417C12.1604 26.5534 12.1826 26.6117 12.2047 26.6234C12.2379 26.6234 12.2712 26.565 12.3044 26.5767C12.3265 26.5767 12.3598 26.565 12.393 26.565C12.4151 26.565 12.4373 26.635 12.4705 26.635C12.4927 26.635 12.5259 26.6817 12.548 26.67C12.5813 26.67 12.6034 26.6234 12.6256 26.6234C12.6477 26.6234 12.6809 26.6934 12.7142 26.6934C12.7474 26.6934 12.7695 26.635 12.7917 26.6234C12.8138 26.6234 12.8471 26.6584 12.8803 26.6584C12.9135 26.6584 12.9246 26.5767 12.9467 26.565C12.9689 26.565 13.0021 26.5417 13.0243 26.5417C13.0464 26.5417 13.0686 26.5067 13.1018 26.5067C13.124 26.5067 13.1572 26.5067 13.1904 26.5067C13.2126 26.5067 13.2569 26.5417 13.2901 26.53C13.3122 26.53 13.3012 26.4134 13.3233 26.4017C13.3455 26.4017 13.3565 26.355 13.3787 26.3434C13.4008 26.3317 13.3787 26.2034 13.3787 26.1917C13.4008 26.18 13.4341 26.1917 13.4562 26.1684C13.4784 26.1567 13.4894 26.1334 13.5116 26.11C13.5337 26.0984 13.6113 26.145 13.6334 26.1334C13.6556 26.1217 13.7442 26.1684 13.7663 26.145C13.7885 26.1217 13.8217 26.1217 13.8438 26.0984C13.866 26.075 13.8992 26.0634 13.9103 26.04C13.9324 26.0167 13.8771 25.935 13.8992 25.9117C13.9103 25.8884 13.9989 25.9117 14.01 25.8767C14.021 25.8534 13.9989 25.8067 14.01 25.7717C14.01 25.7367 13.9878 25.69 13.9878 25.6667C13.9878 25.6434 14.1207 25.6667 14.1207 25.62C14.1207 25.62 14.1429 25.5967 14.1539 25.585C14.165 25.585 14.1539 25.55 14.165 25.5384C14.165 25.5267 14.2093 25.4567 14.2093 25.445L12.8028 24.99L12.7917 24.9434Z" fill="#352A71"/>
<path d="M14.1429 25.5151H14.1097L14.0764 25.4917L13.9768 25.4684H14.0321C14.0321 25.4684 14.0875 25.4684 14.0764 25.4684C14.0764 25.4684 13.9878 25.4451 13.9768 25.4451H14.0211C14.0211 25.4451 13.8549 25.4101 13.8439 25.3984L13.9768 25.4217H13.9989H13.9657H14.0432H14.0654L13.7663 25.3517C13.7663 25.3517 13.8328 25.3517 13.8439 25.3634C13.8439 25.3634 13.7663 25.3401 13.7553 25.3401C13.7553 25.3401 13.7663 25.3401 13.7774 25.3401C13.7885 25.3401 13.9325 25.3751 13.9325 25.3751L13.866 25.3517L13.7996 25.3284H13.8771L13.9435 25.3517L13.8106 25.3167H13.8549L13.9103 25.3284C13.9103 25.3284 13.8217 25.3051 13.8106 25.3051C13.8106 25.3051 13.7663 25.2934 13.7553 25.2934L13.711 25.2817H13.7553L13.9435 25.3167H13.9989L14.0543 25.3401L13.9768 25.3167C13.9768 25.3167 14.1207 25.3517 14.1318 25.3517C14.1318 25.3517 13.9325 25.2934 13.9103 25.2934C13.9214 25.2934 14.01 25.3167 14.01 25.3167L13.9435 25.2934C13.9435 25.2934 13.9103 25.2934 13.9214 25.2934C13.9435 25.2934 13.9878 25.3051 13.9989 25.3051C13.9989 25.3051 14.0654 25.3167 14.0764 25.3167C14.0764 25.3167 14.1318 25.3167 14.1429 25.3167H14.1761L12.7363 24.9784C12.7363 24.9784 12.7474 24.9784 12.7585 24.9784C12.7585 24.9784 12.7585 24.9784 12.7696 24.9784C12.7696 24.9784 12.7474 24.9784 12.7585 24.9784C12.7696 24.9784 12.8471 25.0017 12.8692 25.0017C12.8914 25.0017 12.9135 25.0134 12.9246 25.0251C12.9246 25.0251 12.8028 25.0017 12.7917 25.0017C12.7917 25.0017 12.8471 25.0134 12.8582 25.0251C12.8471 25.0251 12.8249 25.0251 12.836 25.0251C12.836 25.0251 12.8803 25.0367 12.8914 25.0484C12.8914 25.0484 12.8139 25.0367 12.8028 25.0367C12.8139 25.0367 12.7585 25.0367 12.7585 25.0367C12.7585 25.0367 12.8582 25.0601 12.8692 25.0717C12.8692 25.0717 12.8028 25.0601 12.7917 25.0601L12.8471 25.0717H12.836H12.8139H12.8249H12.7696L12.836 25.0951H12.8582H12.7917H12.7585L12.8028 25.1067H12.7363H12.7917H12.7474L12.8139 25.1184L12.8249 25.1301H12.7917H12.7363L12.8249 25.1534H12.8471L12.9578 25.1884H12.9357H12.8471L12.7474 25.1534H12.7142H12.692L12.7696 25.1767H12.692C12.692 25.1767 12.7363 25.1767 12.7474 25.1767C12.7474 25.1767 12.8028 25.1884 12.8139 25.2001C12.8139 25.2001 12.7142 25.1884 12.7031 25.1884H12.692H12.681L14.1318 25.5034H14.1207L14.1429 25.5151Z" fill="#352A71"/>
<path d="M16.5683 17.675C16.5683 17.675 16.5462 17.7566 16.524 17.7916C16.524 17.8033 16.4686 17.92 16.4686 17.92C16.4243 17.9666 16.4686 18.0833 16.4354 18.13C16.4022 18.1766 16.3247 18.1883 16.2914 18.235C16.2582 18.2816 16.2139 18.3283 16.1807 18.375C16.1475 18.4216 16.0589 18.445 16.0367 18.5033C16.0146 18.55 16.0478 18.6433 16.0256 18.69C16.0035 18.7366 15.9149 18.7483 15.8817 18.8066C15.8595 18.8533 15.9592 18.9933 15.937 19.04C15.9038 19.0866 15.7598 19.0516 15.7266 19.0983C15.6934 19.145 15.638 19.2266 15.6048 19.2733C15.5716 19.32 15.5273 19.355 15.494 19.4016C15.4608 19.4483 15.4719 19.5183 15.4387 19.565C15.4054 19.6116 15.3058 19.6233 15.2725 19.67C15.2393 19.7166 15.195 19.775 15.1618 19.81C15.1285 19.8566 15.3611 20.1016 15.3279 20.1483C15.2947 20.195 15.2171 20.2066 15.1728 20.2533C15.1396 20.3 15.2061 20.3933 15.1728 20.44C15.1285 20.4983 15.1064 20.5216 15.0621 20.58C15.0289 20.6266 14.8849 20.58 14.8517 20.615C14.8184 20.6616 14.7963 20.72 14.7631 20.7666C14.7298 20.8133 14.7631 20.9066 14.7298 20.9533C14.6966 21 14.7409 21.0933 14.7188 21.14C14.6966 21.1866 14.5859 21.1983 14.5637 21.245C14.5416 21.2916 14.4419 21.315 14.4197 21.3616C14.3976 21.42 14.4862 21.525 14.464 21.5716C14.4419 21.63 14.3644 21.6533 14.3422 21.7C14.3201 21.7583 14.2315 21.7816 14.2204 21.8283C14.1982 21.8866 14.2536 21.9683 14.2425 22.0266C14.2204 22.085 14.1872 22.1316 14.1761 22.1783C14.1539 22.2366 14.1982 22.26 14.1761 22.3183C14.1539 22.3766 14.1761 22.435 14.1539 22.4933C14.1318 22.5516 14.0986 22.505 14.0764 22.5633C14.0543 22.6216 14.0321 22.6683 14.01 22.7266C13.9878 22.785 13.7885 22.7616 13.7774 22.8083C13.7552 22.8666 13.6777 22.9016 13.6556 22.9483C13.6334 23.0066 13.567 23.03 13.5448 23.0883C13.5227 23.135 13.5891 23.24 13.5559 23.2866C13.5337 23.3333 13.3898 23.31 13.3565 23.3683C13.3344 23.415 13.5116 23.6366 13.4784 23.695C13.4451 23.73 13.3565 23.7533 13.3344 23.8116C13.3122 23.87 13.3565 23.9516 13.3344 24.01C13.3122 24.0683 13.3233 24.1616 13.2901 24.1966C13.2569 24.2433 13.1904 24.2783 13.1683 24.3366C13.135 24.395 13.0686 24.43 13.0464 24.4766C13.0243 24.535 13.0132 24.605 12.9911 24.6633C12.9689 24.7216 12.8914 24.8033 12.8692 24.8616C12.8471 24.9083 12.7806 25.0833 12.7585 25.1416L14.1761 25.5733C14.1761 25.5733 14.1982 25.445 14.2093 25.3983C14.2204 25.3283 14.2315 25.2933 14.2425 25.2233C14.2425 25.1533 14.2979 25.13 14.2979 25.0833C14.2979 25.0133 14.2425 24.9666 14.2315 24.92C14.2315 24.8616 14.2204 24.8033 14.2315 24.745C14.2315 24.71 14.3865 24.675 14.4197 24.6166C14.4419 24.57 14.3865 24.465 14.4197 24.4066C14.453 24.36 14.453 24.3133 14.4751 24.2666C14.5083 24.1966 14.5526 24.1383 14.5637 24.1033C14.5859 24.0333 14.5637 23.9633 14.5637 23.9166C14.5748 23.8466 14.7077 23.8466 14.7077 23.7883C14.7077 23.73 14.7963 23.7066 14.8074 23.6366C14.8184 23.59 14.7298 23.485 14.7631 23.4266C14.7852 23.3916 14.8517 23.38 14.8738 23.345C14.896 23.31 14.8517 23.24 14.8738 23.1933C14.907 23.1233 14.9403 23.065 14.9735 22.995C14.9956 22.96 15.0399 22.89 15.0621 22.855C15.0842 22.8083 15.0842 22.75 15.1175 22.6916C15.1396 22.645 15.2061 22.6216 15.2282 22.5633C15.2504 22.5166 15.2171 22.435 15.2282 22.3883C15.2504 22.3416 15.2504 22.2716 15.2725 22.225C15.2947 22.1783 15.3722 22.1666 15.3944 22.1083C15.4165 22.0616 15.4719 22.0266 15.494 21.98C15.5162 21.9333 15.494 21.8633 15.5273 21.8166C15.5494 21.77 15.638 21.7583 15.6602 21.7116C15.6823 21.665 15.6602 21.595 15.6823 21.5483C15.7045 21.5016 15.7598 21.4783 15.7931 21.4316C15.8152 21.385 15.7931 21.3033 15.8152 21.2566C15.8374 21.21 15.8595 21.1633 15.8817 21.1166C15.9149 21.07 15.926 21.0116 15.9481 20.9766C15.9813 20.93 16.0256 20.9066 16.0589 20.86C16.0921 20.8133 16.1585 20.8016 16.1918 20.755C16.225 20.7083 16.1696 20.6033 16.1918 20.5683C16.225 20.5216 16.225 20.4633 16.2582 20.4166C16.2914 20.37 16.225 20.2416 16.2582 20.195C16.2914 20.16 16.3357 20.1016 16.369 20.0666L16.4576 19.9266C16.4576 19.9266 16.5905 19.8916 16.6237 19.845C16.6569 19.7983 16.7677 19.81 16.7898 19.7633C16.823 19.7166 16.8673 19.6933 16.9006 19.6466C16.9338 19.6116 16.9781 19.5533 17.0113 19.53C17.0445 19.4833 17.0113 19.39 17.0445 19.3433C17.0778 19.2966 17.1774 19.2966 17.1996 19.2616C17.2328 19.215 17.2217 19.145 17.2439 19.0983C17.266 19.0516 17.255 18.9816 17.2882 18.935C17.3103 18.8883 17.4543 18.9116 17.4875 18.865C17.4875 18.865 17.5318 18.83 17.5429 18.8183C17.5651 18.8066 17.5761 18.7716 17.5983 18.76C17.6537 18.7016 17.6204 18.76 17.6647 18.7133L16.6901 17.5466C16.6901 17.5466 16.5905 17.6516 16.5683 17.6866V17.675Z" fill="#352A71"/>
<path d="M23.7782 13.5217C23.7782 13.5217 23.7339 13.5683 23.7117 13.58L23.601 13.65C23.5456 13.6617 23.5124 13.79 23.4681 13.8017C23.4127 13.8133 23.3462 13.7783 23.2909 13.8017C23.2355 13.825 23.1801 13.825 23.1247 13.8483C23.0694 13.8717 22.9918 13.8483 22.9365 13.8717C22.8922 13.895 22.8811 13.9883 22.8257 14.0233C22.7814 14.0467 22.7039 14.0117 22.6485 14.035C22.6042 14.0583 22.6264 14.2333 22.571 14.2567C22.5267 14.28 22.4159 14.1633 22.3606 14.1867C22.3052 14.21 22.2277 14.245 22.1723 14.2683C22.128 14.2917 22.0615 14.2917 22.0172 14.3033C21.9729 14.3267 21.9286 14.385 21.8843 14.4083C21.829 14.4317 21.7404 14.3733 21.6961 14.4083C21.6518 14.42 21.5742 14.4433 21.5299 14.4667C21.4746 14.49 21.5299 14.8283 21.4856 14.84C21.4303 14.8633 21.3527 14.8283 21.2974 14.84C21.242 14.8633 21.2531 14.98 21.1977 14.9917C21.1312 15.015 21.098 15.0267 21.0316 15.05C20.9762 15.0617 20.8876 14.945 20.8322 14.9567C20.7768 14.9683 20.7325 15.015 20.6772 15.0383C20.6218 15.0617 20.5996 15.155 20.5553 15.1783C20.4999 15.2017 20.4889 15.295 20.4446 15.33C20.4003 15.3533 20.3117 15.3067 20.2563 15.33C20.212 15.3533 20.1234 15.3183 20.0791 15.3533C20.0348 15.3767 20.0569 15.5283 20.0016 15.5633C19.9573 15.5983 19.8797 15.5633 19.8354 15.61C19.7911 15.645 19.7025 15.61 19.6582 15.645C19.6139 15.68 19.6139 15.785 19.5696 15.82C19.5143 15.855 19.481 15.8783 19.4257 15.9133C19.3814 15.9483 19.3924 15.995 19.3592 16.03C19.3149 16.065 19.2928 16.1233 19.2485 16.1583C19.2042 16.1933 19.1931 16.135 19.1488 16.17C19.0934 16.205 19.0602 16.2283 19.0048 16.2633C18.9605 16.2983 18.8055 16.1583 18.7612 16.1933C18.7169 16.2283 18.6283 16.205 18.584 16.24C18.5397 16.275 18.4621 16.2633 18.4178 16.2867C18.3735 16.3217 18.3735 16.4383 18.3182 16.4617C18.2739 16.485 18.1631 16.3917 18.1077 16.415C18.0634 16.4383 18.0967 16.73 18.0413 16.7533C17.997 16.765 17.9084 16.73 17.853 16.765C17.8087 16.8 17.7976 16.8933 17.7533 16.9283C17.698 16.9633 17.6647 17.045 17.6204 17.0567C17.5651 17.08 17.4986 17.0567 17.4432 17.1033C17.3879 17.1383 17.3103 17.115 17.266 17.15C17.2107 17.1967 17.1774 17.22 17.1331 17.2667C17.0778 17.3017 16.9781 17.325 16.9227 17.36C16.8784 17.395 16.7344 17.4883 16.6901 17.535L17.6647 18.7017C17.6647 18.7017 17.7423 18.6083 17.7755 18.5733C17.8198 18.5267 17.853 18.4917 17.8973 18.445C17.9305 18.3983 17.9859 18.3983 18.0191 18.3633C18.0524 18.305 18.0191 18.235 18.0524 18.1883C18.0745 18.1417 18.0967 18.0833 18.1299 18.0367C18.152 18.0017 18.296 18.0717 18.3625 18.0367C18.4068 18.0133 18.4068 17.885 18.4621 17.8617C18.5175 17.8383 18.5397 17.7917 18.584 17.7683C18.6504 17.7333 18.7169 17.71 18.739 17.6867C18.7944 17.6517 18.8055 17.57 18.8387 17.535C18.883 17.4883 18.9937 17.5583 19.027 17.5117C19.0602 17.465 19.1377 17.4883 19.1931 17.4533C19.2263 17.4183 19.2042 17.2783 19.2706 17.255C19.3038 17.2433 19.3703 17.2667 19.4035 17.255C19.4367 17.2433 19.4478 17.15 19.481 17.1383C19.5475 17.1033 19.6029 17.0683 19.6693 17.0217C19.7136 16.9983 19.7801 16.975 19.8133 16.9517C19.8576 16.9283 19.8908 16.8817 19.9351 16.8467C19.9794 16.8233 20.0459 16.8467 20.0902 16.8117C20.1345 16.7883 20.1455 16.695 20.1898 16.6717C20.2341 16.6483 20.2674 16.59 20.3117 16.5667C20.356 16.5317 20.4335 16.5667 20.4778 16.5433C20.5221 16.5083 20.5885 16.52 20.6328 16.4967C20.6772 16.4733 20.6993 16.4033 20.7436 16.38C20.7879 16.3567 20.8654 16.3917 20.9097 16.3683C20.954 16.345 20.9762 16.2633 21.0205 16.24C21.0648 16.2167 21.1312 16.24 21.1755 16.205C21.2198 16.1817 21.242 16.0883 21.2863 16.065C21.3306 16.0417 21.3749 16.0067 21.4192 15.9833C21.4635 15.96 21.5078 15.925 21.5521 15.9017C21.5964 15.8783 21.6518 15.89 21.7071 15.8667C21.7514 15.8433 21.8179 15.8667 21.8622 15.8667C21.9065 15.8433 21.9176 15.7383 21.9729 15.715C22.0283 15.6917 22.0505 15.645 22.1058 15.6333C22.1612 15.61 22.1612 15.47 22.2166 15.4467C22.272 15.4233 22.3273 15.4233 22.3716 15.4117L22.5156 15.3417C22.5156 15.3417 22.6485 15.3883 22.6928 15.365C22.7482 15.3417 22.8257 15.4233 22.8811 15.4C22.9365 15.3883 22.9808 15.4 23.0361 15.3767C23.0804 15.3767 23.1469 15.3533 23.1912 15.3417C23.2355 15.33 23.2687 15.2133 23.313 15.2017C23.3684 15.19 23.4459 15.2367 23.4902 15.225C23.5345 15.2017 23.5677 15.1433 23.612 15.12C23.6563 15.0967 23.6896 15.0267 23.7339 15.0033C23.7782 14.98 23.8889 15.085 23.9332 15.0617C23.9332 15.0617 23.9886 15.0617 24.0107 15.0617C24.0329 15.0617 24.055 15.0383 24.0883 15.0383C24.1104 15.0383 24.2322 15.015 24.2655 15.0033L23.8668 13.51C23.8668 13.51 23.7782 13.545 23.756 13.5567L23.7782 13.5217Z" fill="#352A71"/>
<path d="M24.1437 14.9917V14.9567L24.1215 14.9217L24.0883 14.8284L24.1105 14.875C24.1105 14.875 24.1215 14.8984 24.1215 14.91C24.1215 14.91 24.0883 14.8284 24.0883 14.8167C24.0883 14.8167 24.0994 14.8517 24.1105 14.8634C24.1105 14.8634 24.0551 14.7 24.0551 14.6884L24.0994 14.8167V14.84V14.805L24.1215 14.8867C24.1215 14.8867 24.0329 14.595 24.0219 14.595C24.0219 14.595 24.044 14.6534 24.044 14.665L24.0219 14.5834C24.0219 14.5834 24.0219 14.5834 24.0219 14.6067C24.0219 14.6067 24.0662 14.7584 24.0772 14.77V14.7L24.044 14.63L24.0662 14.7117L24.0883 14.7817L24.0551 14.6417V14.6884L24.0883 14.7467C24.0883 14.7467 24.0662 14.6534 24.0662 14.6417L24.0551 14.5834H24.0662L24.1105 14.77L24.1326 14.8284V14.8867C24.1326 14.8867 24.1326 14.805 24.1326 14.7934C24.1326 14.7934 24.1658 14.945 24.1769 14.9567C24.1769 14.9567 24.1326 14.735 24.1326 14.7234C24.1326 14.735 24.1548 14.8284 24.1548 14.8284V14.7584C24.1548 14.7584 24.1326 14.7234 24.1437 14.735C24.1437 14.7584 24.1548 14.805 24.1658 14.8167C24.1658 14.8167 24.188 14.8867 24.188 14.8984C24.188 14.8984 24.1991 14.9567 24.1991 14.9684V15.0034L23.9 13.4867C23.9 13.4867 23.9 13.4984 23.9 13.51C23.9 13.51 23.9 13.51 23.9 13.5217C23.9 13.4984 23.9 13.5334 23.9 13.5217C23.9 13.545 23.9111 13.615 23.9222 13.6384C23.9222 13.6617 23.9222 13.685 23.9222 13.7084C23.9222 13.7084 23.889 13.58 23.889 13.5684C23.889 13.5684 23.9 13.65 23.889 13.6384C23.889 13.6267 23.8779 13.6034 23.8779 13.615V13.6734C23.8779 13.6734 23.8447 13.5684 23.8447 13.58C23.8447 13.5917 23.8336 13.5334 23.8225 13.5334C23.8225 13.5334 23.8447 13.6617 23.8447 13.65C23.8447 13.65 23.8225 13.58 23.8225 13.5684V13.6267H23.8114L23.8004 13.6034V13.6267L23.7782 13.58V13.65L23.7893 13.685L23.7671 13.6267V13.5917V13.6384L23.745 13.5684V13.6267V13.5917V13.6617L23.7339 13.65L23.7118 13.5917L23.7339 13.685V13.7084L23.7671 13.825V13.8017H23.745L23.7118 13.7084L23.6675 13.615V13.5917L23.6342 13.58L23.6564 13.6617L23.6232 13.5917C23.6232 13.5917 23.6342 13.6384 23.6342 13.65C23.6342 13.65 23.6453 13.7084 23.6564 13.72C23.6564 13.72 23.6121 13.6267 23.6121 13.615V13.6034H23.601L24.1437 15.0384V14.9917Z" fill="#352A71"/>
<path d="M23.6785 13.1484L23.7007 13.1134L23.7228 13.09L23.7782 12.9967C23.7782 12.9967 23.7671 13.055 23.7782 13.055C23.7782 13.055 23.7782 13.0667 23.7893 13.0667C23.7893 13.0667 23.7671 13.125 23.7893 13.1134C23.7893 13.1134 23.8447 13.0434 23.8557 13.0434C23.8668 13.0434 23.8336 13.1017 23.8447 13.09C23.8447 13.09 23.9665 12.9617 23.9776 12.9617C23.9886 12.9617 23.889 13.0784 23.9 13.0784L23.9111 13.09V13.1134C23.9111 13.1134 23.9554 13.1017 23.9554 13.1134L23.9 13.1717C23.9 13.1717 23.9 13.1834 23.9 13.195C23.9 13.195 24.188 13.0667 24.188 13.0784C24.188 13.09 24.1326 13.125 24.1326 13.1367C24.1326 13.1484 24.2323 13.1134 24.2212 13.1367C24.2212 13.1484 24.2212 13.16 24.2101 13.1834C24.2101 13.195 24.0662 13.2417 24.0551 13.2417C24.0551 13.2417 24.0551 13.2534 24.0551 13.265C24.0551 13.265 24.1215 13.265 24.1215 13.2767C24.1215 13.2767 24.1991 13.2767 24.1991 13.3C24.1991 13.3 24.1105 13.3234 24.1215 13.335C24.1215 13.335 24.044 13.3467 24.0551 13.3584C24.0551 13.3584 24.188 13.3817 24.188 13.3934C24.188 13.3934 24.1326 13.405 24.1437 13.4167C24.1437 13.4167 24.0772 13.4167 24.0772 13.4284C24.0772 13.4284 24.1658 13.4634 24.1658 13.475C24.1658 13.475 24.1658 13.4867 24.1658 13.4984C24.1658 13.4984 24.2101 13.5217 24.2101 13.5334C24.2101 13.5334 24.2434 13.5684 24.2434 13.58C24.2434 13.5917 24.1991 13.5684 24.1991 13.58L24.188 13.6034C24.188 13.615 24.0108 13.5334 24.0108 13.5334L23.9443 13.5217L23.889 13.4984C23.889 13.4984 23.9554 13.5684 23.9443 13.5684L23.8225 13.475C23.8225 13.475 23.9776 13.6617 23.9665 13.6617C23.9554 13.6617 23.889 13.5917 23.889 13.5917C23.889 13.5917 23.9222 13.6617 23.9111 13.6617C23.9111 13.6617 23.9111 13.7084 23.9111 13.6967C23.9 13.685 23.8557 13.65 23.8557 13.6384C23.8557 13.6384 23.8114 13.58 23.8004 13.58C23.8004 13.58 23.8004 13.5917 23.7893 13.5917C23.7893 13.5917 23.7561 13.545 23.745 13.545L23.7118 13.5217L24.1548 15.0034C24.1548 15.0034 24.2101 14.9684 24.2323 14.9567C24.2544 14.9334 24.2877 14.9217 24.3098 14.91C24.332 14.8867 24.3652 14.91 24.3873 14.8867C24.4095 14.8517 24.3873 14.7817 24.3984 14.7467C24.3984 14.7234 24.4206 14.6767 24.4316 14.6534C24.4316 14.6417 24.5424 14.735 24.5867 14.7234C24.6199 14.7234 24.5867 14.6067 24.6199 14.6067C24.6531 14.6067 24.6531 14.5717 24.6864 14.56C24.7196 14.5484 24.7639 14.5367 24.775 14.5134C24.8082 14.49 24.775 14.4317 24.7971 14.4084C24.8082 14.3734 24.9189 14.4317 24.9189 14.4084C24.9189 14.3734 24.9965 14.3967 25.0186 14.3617C25.0297 14.3384 24.9522 14.2334 24.9743 14.21C24.9965 14.1984 25.0518 14.21 25.074 14.1984C25.0961 14.1867 25.0518 14.1284 25.074 14.105C25.0961 14.07 25.1183 14.035 25.1294 14C25.1515 13.9767 25.1737 13.9534 25.1847 13.93C25.1958 13.9067 25.1847 13.8717 25.1958 13.8367C25.2069 13.8134 25.2623 13.79 25.2733 13.7667C25.2733 13.7317 25.218 13.6967 25.229 13.6617C25.229 13.6384 25.218 13.6034 25.218 13.5684C25.218 13.545 25.2844 13.5217 25.2844 13.4867C25.2844 13.4634 25.3287 13.4284 25.3176 13.405C25.3176 13.37 25.2733 13.3467 25.2733 13.3234C25.2733 13.3 25.3398 13.265 25.3398 13.23C25.3398 13.195 25.2844 13.1717 25.2733 13.1484C25.2733 13.125 25.3066 13.09 25.3066 13.055C25.3066 13.02 25.229 13.0084 25.218 12.985C25.218 12.9617 25.1958 12.9267 25.1958 12.9034C25.1958 12.88 25.1626 12.8567 25.1626 12.8217C25.1626 12.7984 25.1626 12.7634 25.1626 12.7284C25.1626 12.705 25.1958 12.6584 25.1847 12.6234C25.1847 12.6 25.074 12.6117 25.0629 12.5884C25.0629 12.565 25.0186 12.5534 25.0075 12.53C24.9965 12.5067 24.8746 12.53 24.8636 12.53C24.8525 12.5067 24.8636 12.4717 24.8414 12.4484C24.8303 12.425 24.8082 12.4134 24.786 12.39C24.775 12.3667 24.8193 12.285 24.8082 12.2617C24.7971 12.2384 24.8414 12.145 24.8193 12.1217C24.7971 12.0984 24.7971 12.0634 24.775 12.04C24.7528 12.0167 24.7417 11.9817 24.7196 11.97C24.6974 11.9467 24.6199 12.005 24.5978 11.9817C24.5756 11.97 24.5978 11.8767 24.5645 11.865C24.5424 11.8534 24.4981 11.8767 24.4649 11.865C24.4316 11.865 24.3873 11.8884 24.3652 11.8884C24.343 11.8884 24.3652 11.7484 24.3209 11.7484C24.3209 11.7484 24.2987 11.725 24.2877 11.7134C24.2877 11.7017 24.2544 11.7134 24.2434 11.7017C24.2323 11.7017 24.1658 11.655 24.1548 11.655L23.7228 13.1367H23.7339L23.6785 13.1484Z" fill="#352A71"/>
</g>
<defs>
<clipPath id="clip0_4_136">
<rect width="25.2733" height="26.6233" fill="white"/>
</clipPath>
</defs>
</svg>
